<svg width="22" height="22" viewBox="0 0 22 22" fill="none" xmlns="http://www.w3.org/2000/svg">
<path d="M19.1922 10.0161C19.5648 10.2025 19.8002 10.5833 19.8002 11C19.8002 11.4166 19.5648 11.7975 19.1922 11.9838L3.79216 19.6838C3.40199 19.8789 2.9334 19.825 2.59779 19.5464C2.26207 19.2678 2.12269 18.8172 2.24259 18.3978L3.81394 12.8978C3.94891 12.4256 4.49 11.9167 4.98115 11.9167L5.04195 11.9167C5.64948 11.9167 6.0325 11.6075 6.0325 11C6.0325 10.3925 5.64948 10.0833 5.04195 10.0833L4.98115 10.0833C4.49 10.0833 3.94891 9.57439 3.81394 9.10216L2.24259 3.60215C2.12269 3.18272 2.26207 2.73205 2.59779 2.45353C2.9334 2.1749 3.40199 2.121 3.79216 2.31614L19.1922 10.0161Z" fill="#25ACAA"/>
</svg>
