<?xml version="1.0" encoding="UTF-8"?>
<svg xmlns="http://www.w3.org/2000/svg" width="120" height="108" viewBox="0 0 120 108" fill="none">
  <path d="M92.0597 67.0607C92.6455 66.4749 92.6455 65.5251 92.0597 64.9393L82.5137 55.3934C81.928 54.8076 80.9782 54.8076 80.3924 55.3934C79.8066 55.9792 79.8066 56.9289 80.3924 57.5147L88.8777 66L80.3924 74.4853C79.8066 75.0711 79.8066 76.0208 80.3924 76.6066C80.9782 77.1924 81.928 77.1924 82.5137 76.6066L92.0597 67.0607ZM28.999 67.5L90.999 67.5L90.999 64.5L28.999 64.5L28.999 67.5Z" fill="url(#paint0_linear_4378_15679)"></path>
  <path d="M64.7061 42.7071C65.0967 42.3166 65.0967 41.6834 64.7061 41.2929L58.3422 34.9289C57.9516 34.5384 57.3185 34.5384 56.928 34.9289C56.5374 35.3195 56.5374 35.9526 56.928 36.3431L62.5848 42L56.928 47.6569C56.5374 48.0474 56.5374 48.6805 56.928 49.0711C57.3185 49.4616 57.9516 49.4616 58.3422 49.0711L64.7061 42.7071ZM28.999 43L63.999 43L63.999 41L28.999 41L28.999 43Z" fill="url(#paint1_linear_4378_15679)"></path>
  <defs>
    <linearGradient id="paint0_linear_4378_15679" x1="28.999" y1="66" x2="90.999" y2="66" gradientUnits="userSpaceOnUse">
      <stop stop-color="#25ACAA" stop-opacity="0"></stop>
      <stop offset="1" stop-color="#25ACAA"></stop>
    </linearGradient>
    <linearGradient id="paint1_linear_4378_15679" x1="28.999" y1="42" x2="63.999" y2="42" gradientUnits="userSpaceOnUse">
      <stop stop-color="#25ACAA" stop-opacity="0"></stop>
      <stop offset="1" stop-color="#25ACAA"></stop>
    </linearGradient>
  </defs>
</svg>
