<svg width="33" height="32" viewBox="0 0 33 32" fill="none" xmlns="http://www.w3.org/2000/svg"><path d="M24.0187 14.744C24.3333 14.0027 25.0867 13.5987 25.8267 13.7533L25.984 13.7933L26.824 14.0627C27.6573 14.3293 28.296 15.0427 28.5027 15.9387C28.992 18.0693 28.404 20.6627 26.74 23.72C25.0773 26.7733 23.2547 28.608 21.2733 29.2267C20.895 29.3439 20.4931 29.3634 20.1051 29.2835C19.7172 29.2035 19.3558 29.0266 19.0547 28.7693L18.8907 28.6187L18.252 27.9787C17.9835 27.7022 17.8101 27.3474 17.7568 26.9657C17.7036 26.5841 17.7734 26.1954 17.956 25.856L18.0507 25.7013L19.012 24.288C19.3907 23.732 20.0387 23.4693 20.6627 23.6013L20.832 23.648L22.608 24.24C23.3287 23.6903 23.9317 23.0016 24.3813 22.2147C24.7701 21.5609 25.0392 20.843 25.176 20.0947L25.2267 19.7347L23.748 18.332C23.5092 18.0994 23.3394 17.8053 23.2575 17.4822C23.1756 17.1591 23.1848 16.8196 23.284 16.5013L23.3467 16.328L24.0187 14.744Z" fill="#F2931F"/><path d="M7.67065 18.6667L22.3227 18.668C22.4613 18.8973 22.6293 19.1093 22.8293 19.2987L23.788 20.208C23.6638 20.6774 23.4753 21.1275 23.228 21.5453C22.9771 21.9813 22.669 22.3817 22.312 22.736L21.2533 22.3827C20.6462 22.1828 19.9904 22.1877 19.3863 22.3965C18.7822 22.6053 18.2634 23.0066 17.9093 23.5387L16.948 24.952C16.5413 25.5532 16.3549 26.2766 16.4205 26.9995C16.4861 27.7225 16.7997 28.4005 17.308 28.9187L17.6107 29.2227C16.888 29.2973 16.1307 29.3347 15.3333 29.3347C11.48 29.3347 8.49599 28.46 6.41199 26.668C5.86577 26.1986 5.42739 25.6168 5.12684 24.9623C4.8263 24.3079 4.67069 23.5962 4.67065 22.876V21.6667C4.67065 21.2727 4.74825 20.8826 4.89902 20.5186C5.04978 20.1546 5.27076 19.8239 5.54933 19.5454C5.82791 19.2668 6.15863 19.0458 6.5226 18.895C6.88658 18.7443 7.27669 18.6667 7.67065 18.6667Z" fill="#4D5A6A"/><path d="M15.3333 2.67334C16.2088 2.67334 17.0757 2.84578 17.8845 3.18081C18.6934 3.51584 19.4283 4.0069 20.0474 4.62596C20.6664 5.24502 21.1575 5.97995 21.4925 6.78878C21.8276 7.59762 22 8.46453 22 9.34001C22 10.2155 21.8276 11.0824 21.4925 11.8912C21.1575 12.7001 20.6664 13.435 20.0474 14.0541C19.4283 14.6731 18.6934 15.1642 17.8845 15.4992C17.0757 15.8342 16.2088 16.0067 15.3333 16.0067C13.5652 16.0067 11.8695 15.3043 10.6193 14.0541C9.36903 12.8038 8.66665 11.1081 8.66665 9.34001C8.66665 7.5719 9.36903 5.8762 10.6193 4.62596C11.8695 3.37572 13.5652 2.67334 15.3333 2.67334Z" fill="#4D5A6A"/></svg>