<svg width="33" height="32" viewBox="0 0 33 32" fill="none" xmlns="http://www.w3.org/2000/svg"><g clip-path="url(#clip0_2358_43690)"><path fill-rule="evenodd" clip-rule="evenodd" d="M14.386 11.805C14.875 11.98 15.4307 12.1768 15.853 12.237C16.8087 12.3901 17.5922 12.2097 17.6554 11.8386C17.7004 11.5792 17.7273 11.4238 15.9695 10.9286L15.6085 10.8261L15.6008 10.8238C14.5837 10.5268 11.9144 9.74741 12.3412 7.0488C12.619 5.74286 13.6025 4.86677 15.005 4.5545V3.97919C15.005 3.25458 15.6012 2.66669 16.3375 2.66669C17.0738 2.66669 17.6711 3.25458 17.6711 3.97919V4.59442C17.9989 4.66896 18.35 4.76362 18.7724 4.90729C19.4687 5.14463 19.8365 5.89177 19.597 6.5769C19.3575 7.26202 18.5974 7.62258 17.9011 7.38846C17.441 7.23123 17.0836 7.13466 16.8093 7.09194C15.8696 6.94598 15.0837 7.12612 15.0195 7.49614C15.0182 7.50344 15.0169 7.51069 15.0156 7.51789C14.9768 7.73259 14.9447 7.91025 16.3586 8.30497L16.6528 8.40505C18.0714 8.80372 20.7152 9.54802 20.2324 12.2851C20.0535 13.5905 19.075 14.4725 17.6708 14.7854V15.3542C17.6708 16.0788 17.0735 16.6667 16.3372 16.6667C15.601 16.6667 15.0047 16.0788 15.0047 15.3542V14.682C14.4763 14.5607 13.9543 14.3948 13.4828 14.2274L13.2241 14.1368C12.5313 13.894 12.1689 13.0956 12.4134 12.4612C12.6579 11.8268 13.4191 11.4222 14.1137 11.712L14.386 11.805Z" fill="#F2931F"/><path d="M31.9061 21.0581C31.1771 20.0841 29.7868 19.8736 28.7983 20.5949L22.147 25.4167H15.4457C14.9596 25.4167 14.6066 25.0203 14.6066 24.5423C14.6066 24.0638 15.0095 23.6673 15.4457 23.6673H19.7937C20.6328 23.6673 21.5024 23.0723 21.648 22.2115C21.8286 21.1178 20.9745 20.1673 19.891 20.1673H10.952C9.50172 20.1673 8.00031 20.6731 6.83341 21.6028L4.24957 23.6667L1.17231 23.6175C0.736164 23.6175 0.333252 24.0659 0.333252 24.5417V29.7906C0.333252 30.2729 0.736164 30.6667 1.17231 30.6667H20.4039C21.628 30.6667 22.8443 30.2736 23.8323 29.5582L31.3393 24.1157C32.4229 23.3987 32.634 22.0315 31.9061 21.0581Z" fill="#4D5A6A"/></g><defs><clipPath id="clip0_2358_43690"><rect width="32" height="32" fill="white" transform="translate(0.333252)"/></clipPath></defs></svg>