<svg width="32" height="32" viewBox="0 0 32 32" fill="none" xmlns="http://www.w3.org/2000/svg"><path d="M25.5527 26.8021C24.9117 27.5534 24.0124 28.0415 23.0266 27.9972C20.4847 27.8828 15.1671 26.9762 10.0946 21.8957C5.02279 16.8158 4.11714 11.4905 4.00279 8.94408C3.95843 7.95623 4.44628 7.05504 5.19709 6.41291L7.61122 4.34824C8.2455 3.80577 9.1875 3.91144 9.70933 4.57419L13.0667 8.85271C13.4323 9.31769 13.3958 9.92706 13.0667 10.4463L10 15.3333L16.6667 22L21.7399 18.9333C22.2708 18.6041 22.8438 18.5729 23.2804 18.9333L27.4578 22.3436C28.0677 22.8385 28.1833 23.719 27.6741 24.3158L25.5527 26.8021Z" fill="#4D5A6A"/><path d="M26.1667 11H22.6028L27.0014 6.60139C27.444 6.15879 27.444 5.44121 27.0014 4.99861C26.5588 4.55602 25.8412 4.55602 25.3986 4.99861L21 9.39721V5.83331C21 5.18898 20.4777 4.66665 19.8333 4.66665C19.189 4.66665 18.6667 5.18898 18.6667 5.83331V13.3333H26.1667C26.811 13.3333 27.3333 12.811 27.3333 12.1667C27.3333 11.5223 26.811 11 26.1667 11Z" fill="#F2931F"/></svg>