<svg width="164" height="24" viewBox="0 0 164 24" fill="none" xmlns="http://www.w3.org/2000/svg"><g clip-path="url(#clip0_1_335)"><g clip-path="url(#clip1_1_335)"><path d="M0 0.666667C0 0.298477 0.298477 0 0.666667 0H37.3333C37.7015 0 38 0.298477 38 0.666667V23.3333C38 23.7015 37.7015 24 37.3333 24H0.666666C0.298477 24 0 23.7015 0 23.3333V0.666667Z" fill="#1434CB"/><g clip-path="url(#clip2_1_335)"><path d="M15.7356 8.15359L12.0981 16.5582H9.725L7.93502 9.85094C7.82635 9.43781 7.73186 9.28646 7.40135 9.11241C6.86175 8.82891 5.97067 8.56293 5.18667 8.39785L5.23992 8.15359H9.05995C9.54687 8.15359 9.9846 8.4675 10.0952 9.01053L11.0405 13.8739L13.3769 8.15345L15.7356 8.15359ZM25.0339 13.8142C25.0435 11.5959 21.8666 11.4737 21.8885 10.4828C21.8953 10.1812 22.1918 9.86061 22.8408 9.77877C23.1625 9.73799 24.0488 9.70688 25.054 10.1549L25.4483 8.37263C24.9082 8.18274 24.2132 8 23.3484 8C21.1294 8 19.5677 9.1424 19.5546 10.7782C19.5402 11.9882 20.6692 12.6634 21.5198 13.0654C22.3948 13.4771 22.6884 13.7417 22.6851 14.11C22.6789 14.6738 21.9872 14.9227 21.3408 14.9325C20.2124 14.9493 19.5576 14.6368 19.0357 14.4018L18.6288 16.243C19.1533 16.4761 20.1215 16.6794 21.1253 16.6897C23.4839 16.6897 25.0267 15.5614 25.0339 13.8142ZM30.8935 16.5582H32.9699L31.1575 8.15359H29.241C28.8101 8.15359 28.4466 8.39659 28.2857 8.7702L24.9169 16.5582H27.2742L27.7422 15.3029H30.6225L30.8935 16.5582ZM28.3886 13.5803L29.5702 10.4247L30.2503 13.5803H28.3886ZM18.9432 8.15359L17.0868 16.5582H14.8419L16.699 8.15359H18.9432Z" fill="white"/></g></g><g clip-path="url(#clip3_1_335)"><path d="M42 0.666667C42 0.298477 42.2985 0 42.6667 0H79.3333C79.7015 0 80 0.298477 80 0.666667V23.3333C80 23.7015 79.7015 24 79.3333 24H42.6667C42.2985 24 42 23.7015 42 23.3333V0.666667Z" fill="#030303"/><path d="M64.3033 5.71041H57.3449V18.2896H64.3033V5.71041Z" fill="#FF5F00"/><path d="M57.7868 12C57.7857 10.7885 58.0586 9.5927 58.5848 8.50301C59.111 7.41333 59.8768 6.45837 60.8241 5.71042C59.651 4.78278 58.2421 4.2059 56.7584 4.04571C55.2748 3.88551 53.7763 4.14846 52.4342 4.80452C51.0921 5.46058 49.9605 6.48326 49.1688 7.75568C48.3772 9.0281 47.9574 10.4989 47.9574 12C47.9574 13.5011 48.3772 14.9719 49.1688 16.2443C49.9605 17.5167 51.0921 18.5394 52.4342 19.1955C53.7763 19.8515 55.2748 20.1145 56.7584 19.9543C58.2421 19.7941 59.651 19.2172 60.8241 18.2896C59.8768 17.5416 59.111 16.5867 58.5848 15.497C58.0586 14.4073 57.7857 13.2115 57.7868 12V12Z" fill="#EB001B"/><path d="M73.6905 12C73.6905 13.5011 73.2708 14.9719 72.4791 16.2443C71.6875 17.5167 70.556 18.5394 69.2139 19.1955C67.8719 19.8515 66.3734 20.1145 64.8897 19.9543C63.4061 19.7941 61.9972 19.2172 60.8241 18.2896C61.7706 17.5409 62.5358 16.5858 63.0619 15.4962C63.5881 14.4067 63.8615 13.2113 63.8615 12C63.8615 10.7887 63.5881 9.59326 63.0619 8.50375C62.5358 7.41424 61.7706 6.45912 60.8241 5.71041C61.9972 4.78278 63.4061 4.20589 64.8897 4.0457C66.3734 3.88551 67.8719 4.14848 69.2139 4.80454C70.556 5.4606 71.6875 6.48329 72.4791 7.7557C73.2708 9.02812 73.6905 10.4989 73.6905 12V12Z" fill="#F79E1B"/><path d="M72.9318 16.9573V16.6997H73.035V16.6473H72.7721V16.6997H72.8754V16.9573H72.9318ZM73.4422 16.9573V16.6467H73.3616L73.2689 16.8603L73.1762 16.6467H73.0955V16.9573H73.1524V16.723L73.2394 16.925H73.2984L73.3853 16.7225V16.9573H73.4422Z" fill="#F79E1B"/></g><g clip-path="url(#clip4_1_335)"><path d="M126 0.666667C126 0.298477 126.298 0 126.667 0H163.333C163.702 0 164 0.298477 164 0.666667V23.3333C164 23.7015 163.702 24 163.333 24H126.667C126.298 24 126 23.7015 126 23.3333V0.666667Z" fill="#F5F5F5"/><path d="M164 13C164 13 153.515 20.5981 134.312 24H163.333C163.702 24 164 23.7015 164 23.3333V13Z" fill="#F58025"/><path d="M130.152 9.66037H128.667V14.8483H130.144C130.93 14.8483 131.497 14.6639 131.996 14.2489C132.588 13.7598 132.938 13.0201 132.938 12.2563C132.938 10.7268 131.794 9.66037 130.152 9.66037ZM131.335 13.5573C131.016 13.844 130.603 13.9703 129.95 13.9703H129.677V10.5384H129.95C130.603 10.5384 131 10.6547 131.335 10.9573C131.686 11.2681 131.896 11.7512 131.896 12.2483C131.896 12.7495 131.686 13.2466 131.335 13.5573Z" fill="black"/><path d="M134.416 9.66037H133.404V14.8483H134.416V9.66037Z" fill="black"/><path d="M136.89 11.6509C136.282 11.4264 136.104 11.2781 136.104 10.9974C136.104 10.6707 136.42 10.4221 136.857 10.4221C137.16 10.4221 137.411 10.5464 137.673 10.8431L138.203 10.1495C137.768 9.76862 137.246 9.57417 136.677 9.57417C135.759 9.57417 135.059 10.2116 135.059 11.0616C135.059 11.7772 135.386 12.1421 136.336 12.4849C136.733 12.6252 136.934 12.7174 137.036 12.7795C137.238 12.9118 137.339 13.0983 137.339 13.3168C137.339 13.7377 137.004 14.0484 136.553 14.0484C136.07 14.0484 135.681 13.8079 135.448 13.3569L134.795 13.9863C135.262 14.6699 135.821 14.9746 136.591 14.9746C137.643 14.9746 138.381 14.275 138.381 13.2707C138.383 12.4448 138.042 12.0719 136.89 11.6509Z" fill="black"/><path d="M138.702 12.2583C138.702 13.7838 139.898 14.9666 141.44 14.9666C141.875 14.9666 142.248 14.8804 142.709 14.6639V13.4731C142.304 13.8781 141.945 14.0404 141.486 14.0404C140.468 14.0404 139.744 13.3007 139.744 12.2503C139.744 11.254 140.49 10.4682 141.44 10.4682C141.923 10.4682 142.288 10.6406 142.709 11.0516V9.86083C142.264 9.63632 141.899 9.5421 141.464 9.5421C139.931 9.5421 138.702 10.7489 138.702 12.2583Z" fill="black"/><path d="M150.733 13.1464L149.35 9.66037H148.246L150.447 14.9826H150.992L153.233 9.66037H152.137L150.733 13.1464Z" fill="black"/><path d="M153.69 14.8483H156.561V13.9703H154.702V12.569H156.493V11.691H154.702V10.5384H156.561V9.66037H153.69V14.8483Z" fill="black"/><path d="M160.568 11.1919C160.568 10.2197 159.898 9.66037 158.732 9.66037H157.23V14.8483H158.241V12.7635H158.373L159.774 14.8483H161.019L159.385 12.6633C160.149 12.5069 160.568 11.9857 160.568 11.1919ZM158.537 12.0499H158.243V10.4782H158.553C159.183 10.4782 159.526 10.7429 159.526 11.248C159.528 11.7672 159.185 12.0499 158.537 12.0499Z" fill="black"/><path d="M148.548 12.2583C148.548 13.7818 147.313 15.0167 145.79 15.0167C144.266 15.0167 143.032 13.7818 143.032 12.2583C143.032 10.7348 144.266 9.5 145.79 9.5C147.313 9.498 148.548 10.7348 148.548 12.2583Z" fill="#F58025"/></g><g clip-path="url(#clip5_1_335)"><path d="M84 0.666667C84 0.298477 84.2985 0 84.6667 0H121.333C121.702 0 122 0.298477 122 0.666667V23.3333C122 23.7015 121.702 24 121.333 24H84.6667C84.2985 24 84 23.7015 84 23.3333V0.666667Z" fill="#1B76D1"/><path d="M92.9659 13.3367L92.092 11.0751C92.0672 11.0082 92.0352 10.8934 91.9961 10.7309C91.9571 10.5683 91.9162 10.3691 91.8736 10.1332C91.8274 10.3595 91.783 10.5635 91.7404 10.7452C91.6978 10.9237 91.6658 11.0433 91.6445 11.1038L90.8026 13.3367H92.9659ZM88 16L90.9678 9H92.8753L95.8857 16H93.9889L93.3548 14.513H90.3337L89.7903 16H88Z" fill="white"/><path d="M96.0296 16L97.2178 9H98.9654L100.468 13.1216C100.5 13.2077 100.534 13.3336 100.569 13.4993C100.608 13.6651 100.644 13.8547 100.676 14.0683C100.704 13.8515 100.736 13.6587 100.772 13.4898C100.807 13.3176 100.841 13.1917 100.873 13.112L102.402 9H104.123L105.317 16H103.734L103.164 11.778C103.121 11.4656 103.093 11.2297 103.079 11.0704C103.065 10.911 103.057 10.7628 103.057 10.6257C103.057 10.5524 103.057 10.4982 103.057 10.4631C103.061 10.4249 103.065 10.3914 103.068 10.3627C103.015 10.6368 102.963 10.8743 102.914 11.0751C102.867 11.2728 102.825 11.4226 102.786 11.5246L101.134 16H100.196L98.5711 11.5246C98.5569 11.4832 98.5249 11.3684 98.4752 11.1803C98.429 10.9923 98.3633 10.7181 98.2781 10.3579V10.5635C98.2781 10.8887 98.2461 11.2871 98.1822 11.7589L98.1768 11.778L97.612 16H96.0296Z" fill="white"/><path d="M107.07 16V9H111.663V10.2623H108.738V11.7015H111.663V12.9734H108.738V14.7281H111.663V16H107.07Z" fill="white"/><path d="M114.689 10.8313C114.774 10.962 114.842 11.0783 114.891 11.1803C114.941 11.2791 114.985 11.3843 115.025 11.4959C115.071 11.3811 115.122 11.268 115.179 11.1564C115.236 11.0449 115.305 10.9269 115.387 10.8026L116.49 9H118.259L115.93 12.3374L118.333 16H116.532L115.376 14.0587C115.305 13.9408 115.241 13.8181 115.184 13.6906C115.131 13.5631 115.081 13.4292 115.035 13.2889C114.975 13.4547 114.914 13.6029 114.854 13.7336C114.794 13.8643 114.735 13.9775 114.678 14.0731L113.522 16H111.732L114.14 12.3374L111.796 9H113.575L114.689 10.8313Z" fill="white"/></g></g><defs><clipPath id="clip0_1_335"><rect width="164" height="24" fill="white"/></clipPath><clipPath id="clip1_1_335"><rect width="38" height="24" rx="2" fill="white"/></clipPath><clipPath id="clip2_1_335"><rect width="27.7832" height="8.68966" fill="white" transform="translate(5.18667 8)"/></clipPath><clipPath id="clip3_1_335"><rect x="42" width="38" height="24" rx="2" fill="white"/></clipPath><clipPath id="clip4_1_335"><rect x="126" width="38" height="24" rx="2" fill="white"/></clipPath><clipPath id="clip5_1_335"><rect x="84" width="38" height="24" rx="2" fill="white"/></clipPath></defs></svg>