<svg width="33" height="32" viewBox="0 0 33 32" fill="none" xmlns="http://www.w3.org/2000/svg"><path d="M16.1833 2.66687C16.3955 2.66687 16.5995 2.74886 16.7527 2.89573C18.5684 4.63636 21.153 5.57975 23.3604 6.0814C24.2726 6.2878 25.1964 6.43948 26.1267 6.53565C26.4714 6.57137 26.8169 6.59772 27.1629 6.61465L27.2156 6.61663H27.2301C27.4449 6.62178 27.6492 6.71075 27.7993 6.86453C27.9493 7.0183 28.0333 7.22467 28.0333 7.43954V13.8583C28.0333 14.4824 27.9995 15.1064 27.932 15.7269C27.4424 15.4555 26.9262 15.2261 26.3884 15.0435C25.4652 14.7027 24.4668 14.5166 23.4249 14.5166C22.9431 14.5166 22.4706 14.5564 22.0105 14.633C17.39 15.2767 13.8333 19.2439 13.8333 24.0416C13.8333 25.7163 14.2666 27.2899 15.0274 28.6562C11.3958 27.344 8.77234 25.2734 7.0311 22.7623C5.15156 20.0519 4.33325 16.8781 4.33325 13.6937V7.43954C4.33319 7.22467 4.41717 7.0183 4.56725 6.86453C4.71734 6.71075 4.92161 6.62178 5.13642 6.61663H5.1509C5.51455 6.60023 5.87766 6.57345 6.23979 6.53631C6.93959 6.46389 7.91327 6.32959 9.0061 6.08206C11.2128 5.57975 13.7975 4.6357 15.6138 2.89573C15.767 2.74886 15.971 2.66687 16.1833 2.66687Z" fill="#4D5A6A"/><path fill-rule="evenodd" clip-rule="evenodd" d="M23.3333 31.0416C27.1992 31.0416 30.3333 27.9075 30.3333 24.0416C30.3333 20.1757 27.1992 17.0416 23.3333 17.0416C19.4673 17.0416 16.3333 20.1757 16.3333 24.0416C16.3333 27.9075 19.4673 31.0416 23.3333 31.0416ZM22.2666 27.327L27.3333 22.2603L26.0959 20.7563L22.2666 24.5856L20.5706 22.8896L19.3333 24.127L22.2666 27.327Z" fill="#F2931F"/></svg>