<svg width="24" height="24" viewBox="0 0 24 24" fill="none" xmlns="http://www.w3.org/2000/svg"><path fill-rule="evenodd" clip-rule="evenodd" d="M6.50002 9.00002C6.50002 8.44777 6.9477 8.00008 7.49994 8.00008L16 7.99995L16 6.52236C16 6.10628 16.4785 5.87223 16.8069 6.12767L19.9926 8.60534C20.2499 8.80552 20.2499 9.19452 19.9926 9.3947L16.807 11.8724C16.4786 12.1278 16 11.8938 16 11.4777L16 10.0001L7.49994 9.99996C6.9477 9.99995 6.50002 9.55227 6.50002 9.00002ZM18.5 16C18.5 15.4478 18.0523 15.0001 17.5 15.0001L9.00004 14.9999L9.00007 13.5224C9.00008 13.1063 8.52154 12.8722 8.19311 13.1277L5.00749 15.6053C4.75011 15.8055 4.75011 16.1945 5.00748 16.3947L8.19307 18.8724C8.5215 19.1278 9.00004 18.8938 9.00004 18.4777L9.00004 17.0001L17.5 17C18.0523 17 18.5 16.5523 18.5 16Z" fill="#4D5A6A"/></svg>