<svg width="33" height="32" viewBox="0 0 33 32" fill="none" xmlns="http://www.w3.org/2000/svg"><path fill-rule="evenodd" clip-rule="evenodd" d="M26 17.3333C26.4534 17.3333 26.8934 17.3866 27.3334 17.4533V13.3333C27.3334 12.6261 27.0524 11.9478 26.5523 11.4477C26.0522 10.9476 25.374 10.6666 24.6667 10.6666H23.3334V7.99998C23.3334 4.31998 20.3467 1.33331 16.6667 1.33331C12.9867 1.33331 10 4.31998 10 7.99998V10.6666H8.32171C7.61446 10.6666 6.93619 10.9476 6.43609 11.4477C5.93599 11.9478 5.65504 12.6261 5.65504 13.3333V26.6666C5.65504 28.1466 6.84171 29.3333 8.32171 29.3333H19.08C18.4 28.16 18 26.8 18 25.3333C18 20.92 21.5867 17.3333 26 17.3333ZM16.6667 3.99998C14.4534 3.99998 12.6667 5.78665 12.6667 7.99998V10.6666H20.6667V7.99998C20.6667 5.78665 18.88 3.99998 16.6667 3.99998ZM15.1852 22.2172C15.6237 22.5102 16.1393 22.6666 16.6667 22.6666C18.1467 22.6666 19.3334 21.48 19.3334 20C19.3334 19.4726 19.177 18.957 18.884 18.5185C18.5909 18.0799 18.1745 17.7381 17.6872 17.5363C17.1999 17.3345 16.6638 17.2817 16.1465 17.3846C15.6292 17.4874 15.154 17.7414 14.7811 18.1144C14.4082 18.4873 14.1542 18.9625 14.0513 19.4797C13.9484 19.997 14.0012 20.5332 14.203 21.0205C14.4049 21.5077 14.7467 21.9242 15.1852 22.2172Z" fill="#4D5A6A"/><path d="M30.6667 23L24.3334 29.3333L20.6667 25.3333L22.2134 23.7866L24.3334 25.9066L29.12 21.12L30.6667 23Z" fill="#F2931F"/></svg>