<?xml version="1.0" encoding="UTF-8"?>
<svg xmlns="http://www.w3.org/2000/svg" width="126" height="30" viewBox="0 0 126 30" fill="none">
  <path d="M53.531 1.89227C53.1638 1.9364 52.8557 2.23923 52.8064 2.60569L50.3532 21.1768C50.3234 21.3983 50.4956 21.5953 50.7191 21.5953H55.3548C55.5277 21.5953 55.6775 21.4753 55.7152 21.3065L59.9155 2.0999C60.0267 1.6014 59.6128 1.14288 59.1059 1.20581C57.5826 1.39494 54.7863 1.74139 53.531 1.89227Z" fill="white"></path>
  <path d="M52.3738 23.6308C54.4575 23.6308 56.0822 24.421 56.0822 25.8923C56.0822 27.3636 54.1508 28.8 51.0253 28.8C49.3255 28.8 48.3284 27.3636 48.3284 25.8923C48.3284 24.1267 50.2354 23.6308 52.3738 23.6308Z" fill="white"></path>
  <path d="M50.4157 5.90804C50.4453 5.68383 50.2682 5.48596 50.0421 5.49062L47.8893 5.535C47.7308 5.53827 47.5921 5.64236 47.5447 5.79363L45.0159 13.854L44.3471 7.88646C44.3258 7.6965 44.1631 7.5542 43.972 7.55844L39.6564 7.65434C39.5119 7.65755 39.3826 7.74479 39.3254 7.87756L37.4087 12.3326L37.5618 4.25179C37.5659 4.03418 37.3819 3.86023 37.1648 3.87662L33.0291 4.18888C32.833 4.20368 32.6829 4.36955 32.6877 4.56612L32.7209 5.91876C32.7227 5.9915 32.7459 6.0617 32.7871 6.12169C34.8089 9.068 35.7165 13.4245 34.6624 18.4235C34.3537 19.93 33.85 21.2798 33.1886 22.4588C33.1556 22.5176 33.1387 22.5841 33.1404 22.6516L33.1598 23.428C33.1654 23.6521 33.3678 23.8195 33.589 23.783L37.91 23.0708C38.0374 23.0498 38.1445 22.9638 38.1926 22.8441L40.669 16.6795L41.3386 23.7371C41.3586 23.9474 41.5506 24.0981 41.7596 24.0676L45.9948 23.449C46.1283 23.4294 46.2405 23.3387 46.2875 23.2122L49.135 15.5496C49.1446 15.5236 49.1513 15.4967 49.1549 15.4692L50.4157 5.90804Z" fill="white"></path>
  <path fill-rule="evenodd" clip-rule="evenodd" d="M19.3815 21.341C19.3613 21.4312 19.3754 21.526 19.4229 21.6053C20.4195 23.2685 21.9299 24.4093 23.8102 24.5738C28.111 24.9502 31.9278 22.2622 32.9493 17.3701C34.347 10.8653 31.229 5.81197 26.982 5.22062C25.6813 5.05803 24.1798 5.53774 22.7768 6.59036C22.708 6.64197 22.6606 6.717 22.6418 6.80091L19.3815 21.341ZM28.4873 16.6713C28.0572 18.8216 26.6595 20.0043 25.1005 19.8968C23.5414 19.7893 22.6813 17.3701 23.1651 15.1123C23.7027 12.6394 25.2617 11.2416 26.3369 11.4029C27.9497 11.6179 28.9711 14.3059 28.4873 16.6713Z" fill="white"></path>
  <path d="M1.78729 3.56355C1.59921 3.60371 1.47344 3.78151 1.49823 3.97224L4.06571 23.7261C4.09334 23.9387 4.29563 24.0832 4.50569 24.0403L9.19237 23.0838C9.34258 23.0532 9.45822 22.9329 9.48294 22.7816L10.8003 14.7194L12.6924 22.9708C12.7301 23.1352 12.8744 23.2532 13.043 23.2574L16.8002 23.3514C16.9764 23.3558 17.1312 23.235 17.1697 23.063L21.721 2.7654C21.7754 2.52259 21.579 2.29654 21.331 2.31659L16.7346 2.68801C16.5676 2.7015 16.4307 2.82572 16.401 2.99059L14.8756 11.4591L13.1775 5.54159C13.124 5.35509 12.9352 5.24183 12.7455 5.28234L8.47028 6.19502C8.33317 6.22429 8.22447 6.32869 8.18969 6.46451L7.10539 10.6984L6.33163 3.01241C6.3096 2.79355 6.10229 2.64237 5.88717 2.6883L1.78729 3.56355Z" fill="white"></path>
  <path d="M97.6976 13.9269H96.0586L96.3513 10.2684H97.9903C99.0439 10.2684 99.7464 11.0355 99.6293 12.0977C99.5708 13.2188 98.8098 13.9269 97.6976 13.9269Z" fill="white"></path>
  <path d="M84.1171 10.5065L82.4196 15.7582H85.1122L84.1757 10.5065H84.1171Z" fill="white"></path>
  <path fill-rule="evenodd" clip-rule="evenodd" d="M121.205 2.40469H66.2224C64.8414 2.40469 63.6447 3.36153 63.3409 4.70868L59.7409 22.801C59.3243 24.6481 60.7075 26.4047 62.601 26.4047H117.605C118.986 26.4047 120.182 25.4478 120.486 24.1007L124.086 6.00839C124.503 4.16125 123.098 2.40469 121.205 2.40469ZM98.5757 7.19998H92.6049L91.5415 21.6H95.522L95.883 16.7003H97.1708L98.9997 21.5999H103.449L101.268 16.1102C102.732 15.4021 103.61 13.7499 103.727 12.0387C103.902 8.97023 102.205 7.19998 98.5757 7.19998ZM71.7659 13.3388H76.7416L76.566 16.5252H71.5318L71.1806 21.5999H67.2001L68.2547 7.20199H77.7376L77.5025 10.6244H71.9416L71.7659 13.3388ZM80.5464 21.6H76.5074L81.9424 7.20199H86.8595L90.2635 21.6H86.0488L85.5805 18.7676H81.483L80.5464 21.6ZM115.2 7.20199L114.966 10.6244H109.405L109.229 12.9257H114.439L114.205 15.9351H108.995L108.82 18.2955H114.381L114.131 21.5999H104.616L105.659 7.20199H115.2Z" fill="white"></path>
</svg>
