<svg width="32" height="32" viewBox="0 0 32 32" fill="none" xmlns="http://www.w3.org/2000/svg"><path d="M2.72928 19.5573C2.77408 19.7265 2.85193 19.8851 2.95835 20.024C3.06476 20.1629 3.19763 20.2794 3.34928 20.3667L5.89595 21.8387V24.7707C5.89595 25.1243 6.03643 25.4634 6.28647 25.7135C6.53652 25.9635 6.87566 26.104 7.22928 26.104H10.1613L11.6333 28.6507C11.7513 28.8525 11.9199 29.02 12.1223 29.1369C12.3248 29.2538 12.5542 29.316 12.788 29.3173C13.0199 29.3173 13.2506 29.256 13.456 29.1373L16 27.6667L18.5466 29.1387C18.8528 29.3152 19.2165 29.3631 19.5579 29.2719C19.8993 29.1807 20.1907 28.9577 20.368 28.652L21.8386 26.1053H24.7706C25.1242 26.1053 25.4634 25.9649 25.7134 25.7148C25.9635 25.4648 26.1039 25.1256 26.1039 24.772V21.84L28.6506 20.368C28.8023 20.2803 28.9352 20.1636 29.0418 20.0246C29.1484 19.8855 29.2265 19.7268 29.2717 19.5575C29.3169 19.3883 29.3283 19.2117 29.3052 19.0381C29.2822 18.8644 29.2251 18.6969 29.1373 18.5453L27.6666 16L29.1386 13.456C29.3155 13.1499 29.3636 12.7861 29.2724 12.4446C29.1811 12.103 28.958 11.8117 28.652 11.6347L26.1053 10.1627V7.22934C26.1053 6.87571 25.9648 6.53658 25.7148 6.28653C25.4647 6.03648 25.1256 5.896 24.7719 5.896H21.84L20.3693 3.35067C20.1917 3.04523 19.9009 2.82201 19.56 2.72934C19.3908 2.68349 19.2143 2.67167 19.0406 2.69456C18.8669 2.71745 18.6994 2.77459 18.548 2.86267L16 4.33334L13.4546 2.86134C13.1485 2.68442 12.7847 2.63631 12.4432 2.72757C12.1016 2.81883 11.8103 3.042 11.6333 3.348L10.1613 5.89467H7.22928C6.87566 5.89467 6.53652 6.03515 6.28647 6.28519C6.03643 6.53524 5.89595 6.87438 5.89595 7.228V10.16L3.34928 11.632C3.04337 11.8098 2.82038 12.1016 2.72917 12.4435C2.63795 12.7853 2.68594 13.1494 2.86262 13.456L4.33462 16L2.86262 18.544C2.6866 18.8511 2.63869 19.2152 2.72928 19.5573ZM16 17.3333C11.36 17.3333 10.6666 14.828 10.6666 13.3333C10.6666 11.6173 12.0386 9.88934 14.6666 9.44667V8.016H17.3333V9.49467C19.6453 10.0413 20.5333 11.9653 20.5333 13.3333H19.2L17.8666 13.3573C17.8479 12.8507 17.58 12 16 12C14.268 12 13.3333 12.6867 13.3333 13.3333C13.3333 13.832 13.3333 14.6667 16 14.6667C20.64 14.6667 21.3333 17.172 21.3333 18.6667C21.3333 20.3827 19.9613 22.1107 17.3333 22.5533V24H14.6666V22.56C11.548 22.0707 10.6666 19.8893 10.6666 18.6667H13.3333C13.348 18.8573 13.5453 20 16 20C17.84 20 18.6666 19.22 18.6666 18.6667C18.6666 18.2333 18.6666 17.3333 16 17.3333Z" fill="#4D5A6A"/></svg>