<svg width="20" height="20" viewBox="0 0 20 20" fill="none" xmlns="http://www.w3.org/2000/svg"><path d="M9.99992 4.29218C8.90335 4.29218 7.83141 4.61735 6.91964 5.22657C6.00788 5.83579 5.29725 6.7017 4.87761 7.7148C4.45797 8.72789 4.34817 9.84268 4.5621 10.9182C4.77603 11.9937 5.30408 12.9816 6.07947 13.757C6.85486 14.5324 7.84277 15.0604 8.91827 15.2743C9.99377 15.4883 11.1085 15.3785 12.1216 14.9588C13.1347 14.5392 14.0007 13.8286 14.6099 12.9168C15.2191 12.005 15.5443 10.9331 15.5443 9.83653C15.5427 8.36656 14.958 6.95725 13.9186 5.91783C12.8792 4.87841 11.4699 4.29376 9.99992 4.29218ZM13.9025 9.47131L12.5182 10.9565L12.7617 12.9774C12.777 13.0919 12.7608 13.2085 12.7148 13.3145C12.6689 13.4205 12.5949 13.512 12.5008 13.5791C12.3896 13.6601 12.2557 13.7039 12.1182 13.7044C12.0235 13.7039 11.9299 13.6837 11.8434 13.6452L9.99992 12.7861L8.15644 13.6452C8.05078 13.6932 7.9343 13.7124 7.81884 13.7008C7.70337 13.6892 7.59304 13.6472 7.49905 13.5791C7.40497 13.512 7.33098 13.4205 7.28501 13.3145C7.23905 13.2085 7.22286 13.0919 7.23818 12.9774L7.48166 10.9565L6.09731 9.47131C6.01799 9.3865 5.96286 9.28198 5.93764 9.16864C5.91242 9.05529 5.91803 8.93726 5.9539 8.82682C5.98976 8.71638 6.05457 8.61757 6.14158 8.54067C6.22858 8.46377 6.3346 8.4116 6.44861 8.38957L8.44513 8L9.43296 6.22261C9.48883 6.12123 9.57094 6.03673 9.67069 5.97798C9.77044 5.91924 9.88415 5.8884 9.99992 5.8887C10.1158 5.88766 10.2298 5.91819 10.3297 5.97702C10.4296 6.03584 10.5116 6.12074 10.5669 6.22261L11.5547 8L13.5512 8.38957C13.6652 8.4116 13.7713 8.46377 13.8583 8.54067C13.9453 8.61757 14.0101 8.71638 14.0459 8.82682C14.0818 8.93726 14.0874 9.05529 14.0622 9.16864C14.037 9.28198 13.9818 9.3865 13.9025 9.47131Z" fill="#0DA3A1"/><path d="M11.3496 17.367C11.4052 17.3322 11.4609 17.3043 11.5165 17.273H11.52C11.5767 17.2458 11.6347 17.2214 11.6939 17.2C11.8153 17.152 11.9411 17.1159 12.0696 17.0922L12.1322 17.0817C12.1678 17.0752 12.2038 17.0705 12.24 17.0678C12.2572 17.0649 12.2747 17.0638 12.2922 17.0643C12.351 17.0574 12.4103 17.0539 12.4696 17.0539H12.487C12.4998 17.0533 12.5127 17.0545 12.5252 17.0574C12.5903 17.0575 12.6553 17.061 12.72 17.0678C12.7896 17.0748 12.8591 17.0852 12.9287 17.0991C12.9809 17.1096 13.033 17.1165 13.0783 17.1235C13.122 17.1301 13.1662 17.1336 13.2104 17.1339H13.2417C13.4761 17.1346 13.7074 17.0798 13.9165 16.9739C14.0048 16.9284 14.0886 16.8749 14.167 16.8139C14.2033 16.7856 14.2381 16.7555 14.2713 16.7235C14.324 16.6788 14.3718 16.6287 14.4139 16.5739C14.4367 16.5476 14.4576 16.5197 14.4765 16.4904C14.5056 16.4503 14.5323 16.4085 14.5565 16.3652C14.5808 16.3277 14.6017 16.2881 14.6191 16.247C14.6436 16.1951 14.6645 16.1416 14.6817 16.087C14.724 15.9579 14.7787 15.8332 14.8452 15.7148C14.8873 15.6354 14.9362 15.5597 14.9913 15.4887C15.016 15.4513 15.0427 15.4153 15.0713 15.3809C15.0986 15.3448 15.1288 15.3111 15.1617 15.28L15.2556 15.1861C15.2591 15.1826 15.2626 15.1791 15.2661 15.1791C15.2826 15.1653 15.3001 15.1525 15.3183 15.1409C15.3148 15.1409 15.3113 15.1443 15.3078 15.1443C15.5331 14.9367 15.7999 14.779 16.0904 14.6817C16.3935 14.5816 16.6573 14.3886 16.8446 14.1302C17.0319 13.8717 17.1331 13.5609 17.1339 13.2417C17.1325 13.1365 17.1209 13.0317 17.0991 12.9287C17.0298 12.5912 17.0403 12.2422 17.1297 11.9095C17.219 11.5768 17.3849 11.2695 17.6139 11.0122C17.6139 11.0112 17.6143 11.0104 17.6149 11.0097C17.6156 11.0091 17.6165 11.0087 17.6174 11.0087C17.8639 10.7305 18 10.3717 18 10C18 9.62831 17.8639 9.26949 17.6174 8.9913C17.3871 8.73393 17.2203 8.42623 17.1303 8.09282C17.0403 7.75942 17.0297 7.40958 17.0991 7.0713C17.1209 6.96834 17.1325 6.86349 17.1339 6.75826C17.133 6.43862 17.0314 6.12739 16.8434 5.86885C16.6555 5.61032 16.3908 5.41765 16.087 5.31826C15.7588 5.20992 15.4606 5.026 15.2165 4.78131C14.9724 4.53663 14.7893 4.23802 14.6817 3.90956C14.6261 3.74254 14.5426 3.58613 14.4348 3.44695C14.2922 3.26689 14.1109 3.1212 13.9044 3.02065C13.6979 2.9201 13.4714 2.86728 13.2417 2.86609C13.1365 2.86746 13.0317 2.87911 12.9287 2.90087C12.5912 2.96922 12.2424 2.95831 11.9099 2.86898C11.5773 2.77965 11.27 2.61435 11.0122 2.38609C10.7342 2.13803 10.3749 2.00064 10.0024 2C9.62987 1.99936 9.27008 2.13551 8.9913 2.38261C8.97916 2.39521 8.96506 2.40578 8.94956 2.41391C8.69588 2.63548 8.39403 2.79486 8.06799 2.87939C7.74195 2.96392 7.40068 2.97127 7.0713 2.90087C6.96834 2.87911 6.86349 2.86746 6.75826 2.86609C6.52901 2.86693 6.30292 2.91962 6.09692 3.02022C5.89092 3.12081 5.71033 3.26669 5.56869 3.44695C5.45853 3.58514 5.37374 3.74177 5.31826 3.90956C5.21057 4.23849 5.02691 4.53744 4.78217 4.78217C4.53744 5.02691 4.23849 5.21056 3.90956 5.31826C3.60653 5.41843 3.34268 5.6114 3.15541 5.86984C2.96813 6.12828 2.86691 6.4391 2.86609 6.75826C2.86746 6.86349 2.8791 6.96834 2.90087 7.0713C2.93088 7.21781 2.94603 7.36697 2.94609 7.51652C2.94689 8.05917 2.7475 8.58304 2.38609 8.98782C2.13803 9.26575 2.00064 9.62507 2 9.9976C1.99936 10.3701 2.13551 10.7299 2.38261 11.0087C2.61286 11.2661 2.77966 11.5738 2.86966 11.9072C2.95965 12.2406 2.97034 12.5904 2.90087 12.9287C2.8791 13.0317 2.86746 13.1365 2.86609 13.2417C2.86695 13.5614 2.96859 13.8726 3.15656 14.1311C3.34453 14.3897 3.60924 14.5823 3.91304 14.6817C4.22322 14.7819 4.50557 14.9535 4.73739 15.1826C4.74087 15.1826 4.74782 15.1896 4.7513 15.193C4.81507 15.2534 4.87545 15.3173 4.93217 15.3843C5.01623 15.4875 5.09074 15.5981 5.15478 15.7148C5.22129 15.8344 5.27604 15.9602 5.31826 16.0904C5.3516 16.1901 5.39593 16.2858 5.45043 16.3756C5.46796 16.4112 5.48893 16.445 5.51304 16.4765C5.53572 16.5133 5.56131 16.5482 5.58956 16.5809C5.61089 16.6069 5.63415 16.6313 5.65913 16.6539C5.67371 16.6749 5.69128 16.6937 5.7113 16.7096C5.7255 16.7233 5.74061 16.7361 5.75652 16.7478C5.783 16.775 5.81213 16.7995 5.84348 16.8209C5.87896 16.8503 5.91743 16.876 5.95826 16.8974C5.9891 16.9206 6.02306 16.9393 6.05913 16.953C6.06261 16.96 6.06608 16.9635 6.07304 16.9635C6.15482 17.0074 6.24112 17.0424 6.33043 17.0678C6.47011 17.1162 6.61747 17.1386 6.76522 17.1339H6.78956C6.8292 17.1336 6.86875 17.1301 6.90782 17.1235C6.96271 17.1183 7.01728 17.1101 7.0713 17.0991C7.40342 17.0297 7.74709 17.0382 8.07538 17.1239C8.40367 17.2096 8.70764 17.3702 8.96348 17.593L8.97043 17.6H8.97391C8.97739 17.607 8.98435 17.6104 8.9913 17.6174C9.26949 17.8639 9.62831 18 10 18C10.3717 18 10.7305 17.8639 11.0087 17.6174C11.0157 17.6104 11.0226 17.607 11.0296 17.6C11.0817 17.5548 11.1374 17.5096 11.193 17.4678C11.2434 17.4314 11.2956 17.3977 11.3496 17.367ZM10 16.0765C8.76584 16.0765 7.5594 15.7105 6.53324 15.0249C5.50708 14.3392 4.70728 13.3647 4.23499 12.2245C3.7627 11.0843 3.63913 9.8296 3.8799 8.61916C4.12067 7.40871 4.71497 6.29685 5.58765 5.42417C6.46033 4.55149 7.57219 3.95719 8.78263 3.71642C9.99308 3.47565 11.2477 3.59922 12.3879 4.07151C13.5282 4.5438 14.5027 5.3436 15.1884 6.36976C15.874 7.39592 16.24 8.60237 16.24 9.83652C16.2379 11.4908 15.5798 13.0768 14.41 14.2465C13.2402 15.4163 11.6543 16.0744 10 16.0765Z" fill="#0DA3A1"/></svg>