<svg width="24" height="24" viewBox="0 0 24 24" fill="none" xmlns="http://www.w3.org/2000/svg"><path fill-rule="evenodd" clip-rule="evenodd" d="M13.4141 2.10056C14.1952 1.31951 15.4615 1.31951 16.2426 2.10056L21.8994 7.75741C22.6805 8.53846 22.6805 9.80479 21.8994 10.5858L10.5857 21.8995C9.80467 22.6806 8.53834 22.6806 7.75729 21.8995L2.10044 16.2427C1.31939 15.4616 1.31939 14.1953 2.10043 13.4143L13.4141 2.10056ZM14.8284 3.51477L20.4852 9.17162L11.9999 17.6569L6.34307 12.0001L14.8284 3.51477ZM6.34305 17.6569C6.73357 18.0474 7.36674 18.0474 7.75726 17.6569C8.14779 17.2663 8.14779 16.6332 7.75726 16.2427C7.36674 15.8521 6.73357 15.8521 6.34305 16.2427C5.95252 16.6332 5.95252 17.2663 6.34305 17.6569Z" fill="#148F77"/><path d="M4.5753 2.4541C4.77056 2.25884 5.08714 2.25884 5.28241 2.4541C5.47767 2.64936 5.47767 2.96594 5.28241 3.1612L3.16109 5.28252C2.96582 5.47779 2.64924 5.47779 2.45398 5.28252C2.25872 5.08726 2.25872 4.77068 2.45398 4.57542L4.5753 2.4541Z" fill="#148F77"/><path d="M8.81794 3.86833C9.01321 3.67306 9.01321 3.35648 8.81794 3.16122C8.62268 2.96596 8.3061 2.96596 8.11084 3.16122L3.16109 8.11097C2.96583 8.30623 2.96583 8.62281 3.16109 8.81807C3.35635 9.01334 3.67293 9.01334 3.8682 8.81807L8.81794 3.86833Z" fill="#148F77"/><path d="M20.8388 15.8891C21.034 15.6939 21.034 15.3773 20.8388 15.182C20.6435 14.9868 20.3269 14.9868 20.1317 15.182L15.1819 20.1318C14.9867 20.327 14.9867 20.6436 15.1819 20.8389C15.3772 21.0341 15.6938 21.0341 15.889 20.8389L20.8388 15.8891Z" fill="#148F77"/><path d="M20.8388 18.7176C21.034 18.5223 21.3506 18.5223 21.5459 18.7176C21.7411 18.9128 21.7411 19.2294 21.5459 19.4247L19.4245 21.546C19.2293 21.7413 18.9127 21.7413 18.7174 21.546C18.5222 21.3507 18.5222 21.0342 18.7174 20.8389L20.8388 18.7176Z" fill="#148F77"/></svg>