<?xml version="1.0" encoding="UTF-8"?>
<svg xmlns="http://www.w3.org/2000/svg" width="110" height="50" viewBox="0 0 110 50" fill="none">
  <g clip-path="url(#clip0_7998_16312)">
    <path d="M22.4655 16.4149L16.2018 16.5325C15.9907 16.5325 15.7795 16.6501 15.6387 16.8382C15.0054 17.8495 13.0348 20.6716 11.2752 22.647C10.8999 22.9998 10.29 22.9057 10.0319 22.4588C9.985 22.3648 9.9146 22.2707 9.9146 22.2472C9.53924 21.377 8.38974 16.3444 7.87358 15.7094C7.24024 14.9568 1.79756 13.5929 0.953013 13.3106C0.34306 13.099 0.17884 12.2994 0.648035 11.8525C2.03216 10.5356 4.26084 8.67772 5.85607 7.61945C6.06722 7.50185 6.20797 7.26665 6.20797 7.03145L6.11415 1.0581C6.11415 0.587752 6.58334 0.234994 7.02904 0.44665C8.36625 1.01107 10.7591 2.51617 12.2606 3.83314C12.4248 4.02128 12.6828 4.09182 12.9175 4.02128C13.9966 3.71556 17.0229 2.84541 19.9788 2.68079C20.3777 2.65728 20.7061 2.98652 20.6591 3.40984C20.5184 4.82089 20.1196 7.85458 19.4627 9.85359C19.3923 10.0652 19.4158 10.2769 19.58 10.465C20.2134 11.2881 21.7148 13.3577 23.0285 15.4272C23.2632 15.874 22.9816 16.4149 22.4655 16.4149Z" fill="white"></path>
    <path d="M15.3572 9.054C15.3572 9.83004 14.7239 10.4886 13.9497 10.4886C13.1755 10.4886 12.5421 9.85359 12.5421 9.054C12.5421 8.27789 13.1755 7.61945 13.9497 7.61945C14.7239 7.61945 15.3572 8.27789 15.3572 9.054ZM22.4655 16.4149L16.2018 16.5325C15.9907 16.5325 15.7795 16.6501 15.6387 16.8382C15.0054 17.8495 13.0348 20.6716 11.2752 22.647C10.8999 22.9998 10.29 22.9057 10.0319 22.4588C9.985 22.3648 9.9146 22.2707 9.9146 22.2472C9.53924 21.377 8.38974 16.3444 7.87358 15.7094C7.24024 14.9568 1.79756 13.5929 0.953013 13.3106C0.34306 13.099 0.17884 12.2994 0.648035 11.8525C2.03216 10.5356 4.26084 8.67772 5.85607 7.61945C6.06722 7.50185 6.20797 7.26665 6.20797 7.03145L6.11415 1.0581C6.11415 0.587752 6.58334 0.234994 7.02904 0.44665C8.36625 1.01107 10.7591 2.51617 12.2606 3.83314C12.4248 4.02128 12.6828 4.09182 12.9175 4.02128C13.9966 3.71556 17.0229 2.84541 19.9788 2.68079C20.3777 2.65728 20.7061 2.98652 20.6591 3.40984C20.5184 4.82089 20.1196 7.85458 19.4627 9.85359C19.3923 10.0652 19.4158 10.2769 19.58 10.465C20.2134 11.2881 21.7148 13.3577 23.0285 15.4272C23.2632 15.874 22.9816 16.4149 22.4655 16.4149ZM18.7823 4.77385C18.8293 4.60921 18.6651 4.44459 18.4774 4.46813C12.1433 5.12661 6.34875 9.75954 4.47195 11.4292C4.16698 11.6879 4.26084 12.1818 4.63618 12.3229C4.63618 12.3229 8.67121 12.9814 9.63313 13.8045C10.3369 14.4159 11.0173 18.0846 11.0173 18.0846C11.158 18.4374 11.6037 18.5079 11.8618 18.2492C17.3278 12.6286 18.5712 6.32599 18.7823 4.77385Z" fill="url(#paint0_linear_7998_16312)"></path>
    <path d="M8.06492 20.0599C8.01801 19.8482 7.94761 19.6366 7.87721 19.4014L5.85959 21.5415C5.71881 21.7061 5.64844 21.9178 5.64844 22.1295C5.64844 22.3647 5.74229 22.5764 5.90652 22.7175C6.04726 22.8585 6.25842 22.9291 6.46957 22.9291C6.70415 22.9291 6.91535 22.8351 7.07958 22.6704L8.41679 21.2593C8.29954 20.93 8.18223 20.5302 8.06492 20.0599Z" fill="url(#paint1_linear_7998_16312)"></path>
    <path d="M6.96089 16.4622C6.79666 16.3446 6.46823 16.2271 6.09285 16.0859L1.07249 21.2127C0.908271 21.3774 0.837891 21.589 0.837891 21.8007C0.837891 22.0123 0.908271 22.2475 1.07249 22.3886C1.23671 22.5297 1.44784 22.6238 1.65898 22.6238C1.87012 22.6238 2.08125 22.5532 2.26893 22.3886L7.24236 17.3088C7.14853 16.9561 7.05471 16.6504 6.96089 16.4622Z" fill="url(#paint2_linear_7998_16312)"></path>
    <path d="M2.43156 14.9316L0.765858 16.6249C0.62509 16.7896 0.53125 17.0013 0.53125 17.2129C0.53125 17.4246 0.60163 17.6598 0.765858 17.8009C0.930082 17.942 1.14122 18.0361 1.35237 18.0361C1.56351 18.0361 1.79812 17.942 1.93888 17.8009L4.26148 15.4491C3.60458 15.2844 2.94769 15.0963 2.43156 14.9316Z" fill="url(#paint3_linear_7998_16312)"></path>
    <path d="M8.06492 20.0599C8.01801 19.8482 7.94761 19.6366 7.87721 19.4014L5.85959 21.5415C5.71881 21.7061 5.64844 21.9178 5.64844 22.1295C5.64844 22.3647 5.74229 22.5764 5.90652 22.7175C6.04726 22.8585 6.25842 22.9291 6.46957 22.9291C6.70415 22.9291 6.91535 22.8351 7.07958 22.6704L8.41679 21.2593C8.29954 20.93 8.18223 20.5302 8.06492 20.0599Z" fill="url(#paint4_linear_7998_16312)" stroke="url(#paint5_linear_7998_16312)" stroke-width="0.828388"></path>
    <path d="M2.43156 14.9316L0.765858 16.6249C0.62509 16.7896 0.53125 17.0013 0.53125 17.2129C0.53125 17.4246 0.60163 17.6598 0.765858 17.8009C0.930082 17.942 1.14122 18.0361 1.35237 18.0361C1.56351 18.0361 1.79812 17.942 1.93888 17.8009L4.26148 15.4491C3.60458 15.2844 2.94769 15.0963 2.43156 14.9316Z" stroke="url(#paint6_linear_7998_16312)" stroke-width="0.828388"></path>
    <path d="M6.96089 16.4622C6.79666 16.3446 6.46823 16.2271 6.09285 16.0859L1.07249 21.2127C0.908271 21.3774 0.837891 21.589 0.837891 21.8007C0.837891 22.0123 0.908271 22.2475 1.07249 22.3886C1.23671 22.5297 1.44784 22.6238 1.65898 22.6238C1.87012 22.6238 2.08125 22.5532 2.26893 22.3886L7.24236 17.3088C7.14853 16.9561 7.05471 16.6504 6.96089 16.4622Z" stroke="url(#paint7_linear_7998_16312)" stroke-opacity="0.5" stroke-width="0.828388"></path>
    <g filter="url(#filter0_ii_7998_16312)">
      <path d="M22.4675 16.414L16.2038 16.5315C15.9926 16.5315 15.7815 16.6491 15.6407 16.8373C15.0074 17.8485 13.0367 20.6706 11.2772 22.646C10.9019 22.9988 10.2919 22.9047 10.0339 22.4579C9.98695 22.3638 9.91655 22.2698 9.91655 22.2462C9.54119 21.3761 8.39169 16.3434 7.87553 15.7084C7.24219 14.9559 1.79951 13.5919 0.954966 13.3097C0.345013 13.098 0.180794 12.2984 0.649988 11.8516C2.03411 10.5346 4.26279 8.67674 5.85802 7.61847C6.06918 7.50087 6.20992 7.26567 6.20992 7.03054L6.1161 1.05712C6.1161 0.586776 6.5853 0.234017 7.03099 0.445674C8.3682 1.01009 10.7611 2.5152 12.2625 3.83217C12.4268 4.0203 12.6848 4.09084 12.9194 4.0203C13.9986 3.71458 17.0248 2.84444 19.9808 2.67982C20.3796 2.6563 20.708 2.98554 20.6611 3.40886C20.5204 4.81991 20.1215 7.85361 19.4646 9.85261C19.3943 10.0643 19.4177 10.2759 19.5819 10.464C20.2154 11.2872 21.7168 13.3567 23.0305 15.4262C23.2651 15.873 22.9836 16.414 22.4675 16.414Z" stroke="url(#paint8_linear_7998_16312)" stroke-width="0.828388"></path>
    </g>
    <path d="M32.3581 10.0039C31.6903 9.38273 30.9557 9.20526 30.1322 9.20526C29.0414 9.18307 28.3291 9.53808 28.3291 10.2258C28.3515 10.9358 29.0859 11.202 30.1767 11.313C31.7348 11.4461 33.7827 11.8011 33.7604 13.9754C33.7382 15.5506 32.3581 16.6377 30.1544 16.6377C28.7743 16.6377 27.3943 16.3271 26.2812 15.0847L27.2162 13.8423C28.0175 14.7075 29.1973 15.0847 30.1989 15.0847C31.0448 15.0847 31.9797 14.774 32.002 13.9975C32.0242 13.2432 31.2896 12.9548 30.0431 12.8217C28.4404 12.6664 26.6151 12.156 26.5929 10.2924C26.5929 8.4287 28.5295 7.71875 30.1099 7.71875C31.4232 7.71875 32.4249 8.0072 33.382 8.85025L32.3581 10.0039Z" fill="#1A232B"></path>
    <path d="M37.5004 5.43411C37.5004 6.89841 35.2969 6.89841 35.2969 5.43411C35.2969 4.01415 37.5004 4.01415 37.5004 5.43411ZM35.5193 7.89681V16.3721H37.3V7.89681H35.5193Z" fill="#1A232B"></path>
    <path d="M42.4193 5.5V7.94053H44.8904V9.47141H42.3973V13.4871C42.3973 14.3746 42.7977 14.8849 43.6214 14.8849C43.9554 14.8849 44.3561 14.774 44.7121 14.5964L45.2239 16.1051C44.6452 16.3714 44.1333 16.4823 43.5323 16.4823C41.6847 16.5267 40.6385 15.4839 40.6385 13.5093V9.49359H39.0137V7.96272H40.6385V5.67749L42.4193 5.5Z" fill="#1A232B"></path>
    <path d="M48.0077 12.7995C48.1633 14.0863 49.2319 14.9294 50.7679 14.9294C51.6358 14.9294 52.7043 14.5966 53.2163 14.0197L54.374 15.129C53.5058 16.0831 52.0365 16.5712 50.7231 16.5712C47.9409 16.5712 46.1602 14.7963 46.1602 12.1117C46.1602 9.53808 47.963 7.71875 50.612 7.71875C53.3498 7.71875 55.1974 9.38273 54.8635 12.8217L48.0077 12.7995ZM53.1718 11.313C53.0606 9.98176 52.0813 9.27181 50.6564 9.27181C49.3654 9.27181 48.2969 9.98176 48.0298 11.313H53.1718Z" fill="#1A232B"></path>
    <path d="M58.4479 7.89659V17.3702C58.4479 19.5001 57.6689 20.6095 55.7765 20.6095C55.1758 20.6095 54.5748 20.4542 53.9961 20.077L54.6415 18.6792C54.9975 18.8567 55.3761 18.9454 55.7321 18.9454C56.5779 18.9232 56.7115 18.3464 56.7115 17.3702V7.89659H58.4479ZM56.4668 5.41166C56.4668 6.87601 58.6703 6.87601 58.6703 5.41166C58.6703 3.96955 56.4668 3.96955 56.4668 5.41166Z" fill="#1A232B"></path>
    <path d="M67.6613 7.91777H69.3754C69.3754 10.7354 69.3754 13.5531 69.3754 16.3708H67.6833L67.594 14.9952C67.0375 16.0824 65.7247 16.5927 64.6782 16.5927C62.2075 16.6149 60.3379 15.0174 60.3379 12.1331C60.3379 9.31548 62.2743 7.74023 64.723 7.74023C65.9246 7.74023 67.0822 8.29489 67.6167 9.27111L67.6613 7.91777ZM62.1183 12.1331C62.1183 13.8859 63.3648 14.9509 64.8783 14.9509C68.529 14.9509 68.529 9.35985 64.8783 9.35985C63.3428 9.35985 62.1183 10.4026 62.1183 12.1331Z" fill="#1A232B"></path>
    <path d="M73.562 4.39105V9.22772C74.1184 8.22932 75.498 7.71903 76.5443 7.71903C78.9934 7.71903 80.8407 9.24991 80.8407 12.1119C80.8407 14.9075 78.9707 16.5049 76.5003 16.5049C75.3647 16.5049 74.2297 16.0834 73.562 14.9962L73.4507 16.3274H71.7812V4.34668L73.562 4.39105ZM73.6513 12.1341C73.6513 13.7982 74.8755 14.8853 76.3663 14.8853C77.8358 14.8853 79.0374 13.8203 79.0374 12.1341C79.0374 10.4037 77.8358 9.38307 76.3663 9.38307C74.8975 9.40526 73.6513 10.5146 73.6513 12.1341Z" fill="#1A232B"></path>
    <path d="M84.4916 4.39105V9.22772C85.0481 8.22932 86.4283 7.71903 87.4746 7.71903C89.9231 7.71903 91.7704 9.24991 91.7704 12.1119C91.7704 14.9075 89.9004 16.5049 87.4299 16.5049C86.2943 16.5049 85.1594 16.0834 84.4916 14.9962L84.3803 16.3274H82.7109V4.34668L84.4916 4.39105ZM84.5803 12.1341C84.5803 13.7982 85.8045 14.8853 87.2966 14.8853C88.7655 14.8853 89.9671 13.8203 89.9671 12.1341C89.9671 10.4037 88.7655 9.38307 87.2966 9.38307C85.8272 9.40526 84.5803 10.5146 84.5803 12.1341Z" fill="#1A232B"></path>
    <path d="M94.9743 12.7995C95.1303 14.0863 96.1992 14.9294 97.7347 14.9294C98.603 14.9294 99.6713 14.5966 100.183 14.0197L101.341 15.129C100.472 16.0831 99.0035 16.5712 97.69 16.5712C94.9077 16.5712 93.127 14.7963 93.127 12.1117C93.127 9.53808 94.9303 7.71875 97.5787 7.71875C100.317 7.71875 102.164 9.38273 101.831 12.8217L94.9743 12.7995ZM100.138 11.313C100.027 9.98176 99.0482 9.27181 97.6234 9.27181C96.3325 9.27181 95.2642 9.98176 94.997 11.313H100.138Z" fill="#1A232B"></path>
    <path d="M105.305 7.9184L105.415 9.02772C106.039 7.94059 106.996 7.71875 107.909 7.71875C108.732 7.71875 109.533 8.0072 110.001 8.4287L109.199 9.95957C108.777 9.62681 108.354 9.44928 107.709 9.44928C106.484 9.44928 105.415 10.2037 105.415 11.7567V16.3271H103.635V7.87404L105.305 7.9184Z" fill="#1A232B"></path>
  </g>
  <path d="M5.48669 45.807C6.36994 45.8206 7.22601 45.9225 8.06849 46.0992C8.80227 44.1085 9.10122 41.9207 8.84983 39.665L3 40.3241L3.27856 42.8244L6.95424 42.4099L5.4731 45.8002H5.48669V45.807Z" fill="#FFA300"></path>
  <path d="M6.79229 35.2894C6.33708 36.0436 5.82072 36.7366 5.25 37.3821C6.60885 39.0127 8.35496 40.3647 10.4272 41.2752L12.778 35.8805L10.468 34.875L8.98683 38.2653L6.79229 35.2894Z" fill="#FFA300"></path>
  <path d="M15.25 41.6768C14.822 40.909 14.4823 40.1073 14.2105 39.292C12.1179 39.6521 10.0728 40.4878 8.25195 41.833L11.7442 46.5686L13.7689 45.0739L11.5743 42.098L15.25 41.6836V41.6768Z" fill="#FFA300"></path>
  <path d="M21.4867 45.807C22.3699 45.8206 23.226 45.9225 24.0685 46.0992C24.8023 44.1085 25.1012 41.9207 24.8498 39.665L19 40.3241L19.2786 42.8244L22.9542 42.4099L21.4731 45.8002H21.4867V45.807Z" fill="#FFA300"></path>
  <path d="M22.7923 35.2894C22.3371 36.0436 21.8207 36.7366 21.25 37.3821C22.6088 39.0127 24.355 40.3647 26.4272 41.2752L28.778 35.8805L26.468 34.875L24.9868 38.2653L22.7923 35.2894Z" fill="#FFA300"></path>
  <path d="M31.25 41.6768C30.822 40.909 30.4823 40.1073 30.2105 39.292C28.1179 39.6521 26.0728 40.4878 24.252 41.833L27.7442 46.5686L29.7689 45.0739L27.5743 42.098L31.25 41.6836V41.6768Z" fill="#FFA300"></path>
  <path d="M37.4867 45.807C38.3699 45.8206 39.226 45.9225 40.0685 46.0992C40.8023 44.1085 41.1012 41.9207 40.8498 39.665L35 40.3241L35.2786 42.8244L38.9542 42.4099L37.4731 45.8002H37.4867V45.807Z" fill="#FFA300"></path>
  <path d="M38.7923 35.2894C38.3371 36.0436 37.8207 36.7366 37.25 37.3821C38.6088 39.0127 40.355 40.3647 42.4272 41.2752L44.778 35.8805L42.468 34.875L40.9868 38.2653L38.7923 35.2894Z" fill="#FFA300"></path>
  <path d="M47.25 41.6768C46.822 40.909 46.4823 40.1073 46.2105 39.292C44.1179 39.6521 42.0728 40.4878 40.252 41.833L43.7442 46.5686L45.7689 45.0739L43.5743 42.098L47.25 41.6836V41.6768Z" fill="#FFA300"></path>
  <path d="M53.4867 45.807C54.3699 45.8206 55.226 45.9225 56.0685 46.0992C56.8023 44.1085 57.1012 41.9207 56.8498 39.665L51 40.3241L51.2786 42.8244L54.9542 42.4099L53.4731 45.8002H53.4867V45.807Z" fill="#FFA300"></path>
  <path d="M54.7923 35.2894C54.3371 36.0436 53.8207 36.7366 53.25 37.3821C54.6088 39.0127 56.355 40.3647 58.4272 41.2752L60.778 35.8805L58.468 34.875L56.9868 38.2653L54.7923 35.2894Z" fill="#FFA300"></path>
  <path d="M63.25 41.6768C62.822 40.909 62.4823 40.1073 62.2105 39.292C60.1179 39.6521 58.0728 40.4878 56.252 41.833L59.7442 46.5686L61.7689 45.0739L59.5743 42.098L63.25 41.6836V41.6768Z" fill="#FFA300"></path>
  <g clip-path="url(#clip1_7998_16312)">
    <path fill-rule="evenodd" clip-rule="evenodd" d="M76.125 42.5269V47.3586L76.1181 47.3637L72.8275 42.9015C72.6885 44.2616 72.3779 45.5784 71.9176 46.8272C70.9547 46.6253 69.9764 46.5089 68.9669 46.4933V46.4856H68.9514L70.6441 42.6109L66.4434 43.0846L66.125 40.2271L71.6295 39.607C70.5267 38.8087 69.5448 37.8846 68.6953 36.8652C69.3476 36.1276 69.9377 35.3356 70.458 34.4737L72.966 37.8747L74.6587 34L77.2988 35.1492L75.0894 40.2192C75.4311 40.066 75.7765 39.9255 76.125 39.7978V42.2318L75.924 42.2544L76.125 42.5269ZM73.7426 40.9015C73.4517 40.7526 73.167 40.5959 72.8888 40.4317C72.9058 40.7589 72.9128 41.0844 72.91 41.4081C73.1839 41.2298 73.4615 41.061 73.7426 40.9015Z" fill="#FFA300"></path>
    <path d="M76.125 39.793V42.2305L80.1248 41.7332V41.7255C79.6356 40.848 79.2474 39.9318 78.9368 39C77.9867 39.1635 77.0452 39.4555 76.125 39.793Z" fill="#C3CCD5"></path>
    <path d="M76.125 42.5234L78.4321 45.6079L76.125 47.3672V42.5234Z" fill="#C3CCD5"></path>
  </g>
  <path d="M85.701 44.1108V42.6442L90.0213 35.8182H91.2443V37.9062H90.4986L87.5902 42.5149V42.5945H93.6207V44.1108H85.701ZM90.5582 46V43.6634L90.5781 43.0071V35.8182H92.3182V46H90.5582ZM96.0506 46.1094C95.749 46.1094 95.4905 46.0033 95.275 45.7912C95.0596 45.5791 94.9535 45.3205 94.9569 45.0156C94.9535 44.7173 95.0596 44.4621 95.275 44.25C95.4905 44.0379 95.749 43.9318 96.0506 43.9318C96.3423 43.9318 96.5958 44.0379 96.8113 44.25C97.03 44.4621 97.141 44.7173 97.1444 45.0156C97.141 45.2178 97.088 45.4018 96.9853 45.5675C96.8858 45.7332 96.7533 45.8658 96.5875 45.9652C96.4251 46.0613 96.2462 46.1094 96.0506 46.1094ZM102.35 46.1939C101.531 46.1939 100.828 45.9867 100.242 45.5724C99.6583 45.1548 99.2092 44.5533 98.8944 43.7678C98.5828 42.9789 98.427 42.0294 98.427 40.919C98.4303 39.8087 98.5878 38.8641 98.8993 38.0852C99.2142 37.303 99.6633 36.7064 100.247 36.2955C100.833 35.8845 101.534 35.679 102.35 35.679C103.165 35.679 103.866 35.8845 104.453 36.2955C105.039 36.7064 105.488 37.303 105.8 38.0852C106.115 38.8674 106.272 39.812 106.272 40.919C106.272 42.0327 106.115 42.9839 105.8 43.7727C105.488 44.5582 105.039 45.1581 104.453 45.5724C103.869 45.9867 103.168 46.1939 102.35 46.1939ZM102.35 44.6378C102.986 44.6378 103.488 44.3246 103.856 43.6982C104.227 43.0684 104.413 42.142 104.413 40.919C104.413 40.1103 104.328 39.4309 104.159 38.8807C103.99 38.3305 103.752 37.9162 103.443 37.6378C103.135 37.3561 102.771 37.2152 102.35 37.2152C101.717 37.2152 101.216 37.5301 100.848 38.1598C100.48 38.7862 100.295 39.706 100.291 40.919C100.288 41.7311 100.369 42.4138 100.535 42.9673C100.704 43.5208 100.943 43.9384 101.251 44.2202C101.559 44.4986 101.925 44.6378 102.35 44.6378Z" fill="#1A232B"></path>
  <defs>
    <filter id="filter0_ii_7998_16312" x="-0.0351562" y="-0.0351562" width="23.5605" height="23.4762" color-interpolation-filters="sRGB">
      <feFlood flood-opacity="0" result="BackgroundImageFix"></feFlood>
      <feBlend mode="normal" in="SourceGraphic" in2="BackgroundImageFix" result="shape"></feBlend>
      <feColorMatrix in="SourceAlpha" type="matrix" values="0 0 0 0 0 0 0 0 0 0 0 0 0 0 0 0 0 0 127 0" result="hardAlpha"></feColorMatrix>
      <feOffset dy="0.165678"></feOffset>
      <feGaussianBlur stdDeviation="0.0828388"></feGaussianBlur>
      <feComposite in2="hardAlpha" operator="arithmetic" k2="-1" k3="1"></feComposite>
      <feColorMatrix type="matrix" values="0 0 0 0 1 0 0 0 0 1 0 0 0 0 1 0 0 0 0.8 0"></feColorMatrix>
      <feBlend mode="normal" in2="shape" result="effect1_innerShadow_7998_16312"></feBlend>
      <feColorMatrix in="SourceAlpha" type="matrix" values="0 0 0 0 0 0 0 0 0 0 0 0 0 0 0 0 0 0 127 0" result="hardAlpha"></feColorMatrix>
      <feOffset dy="0.0828388"></feOffset>
      <feGaussianBlur stdDeviation="0.0828388"></feGaussianBlur>
      <feComposite in2="hardAlpha" operator="arithmetic" k2="-1" k3="1"></feComposite>
      <feColorMatrix type="matrix" values="0 0 0 0 0.441667 0 0 0 0 0.441667 0 0 0 0 0.441667 0 0 0 0.4 0"></feColorMatrix>
      <feBlend mode="normal" in2="effect1_innerShadow_7998_16312" result="effect2_innerShadow_7998_16312"></feBlend>
    </filter>
    <linearGradient id="paint0_linear_7998_16312" x1="19.7151" y1="3.28225" x2="5.85393" y2="17.1095" gradientUnits="userSpaceOnUse">
      <stop offset="0.1745" stop-color="#52BFCA"></stop>
      <stop offset="0.9163" stop-color="#7238DF"></stop>
    </linearGradient>
    <linearGradient id="paint1_linear_7998_16312" x1="3.8369" y1="24.6256" x2="9.27143" y2="19.2968" gradientUnits="userSpaceOnUse">
      <stop offset="0.1875" stop-color="#25E2EA"></stop>
      <stop offset="1" stop-color="#19A6D1"></stop>
    </linearGradient>
    <linearGradient id="paint2_linear_7998_16312" x1="-3.39752" y1="26.7292" x2="8.72618" y2="14.841" gradientUnits="userSpaceOnUse">
      <stop stop-color="#A443FD"></stop>
      <stop offset="1" stop-color="#A959F3"></stop>
    </linearGradient>
    <linearGradient id="paint3_linear_7998_16312" x1="-1.45436" y1="19.9727" x2="4.5547" y2="14.0805" gradientUnits="userSpaceOnUse">
      <stop offset="0.3958" stop-color="#E55EC4"></stop>
      <stop offset="1" stop-color="#8225D0"></stop>
    </linearGradient>
    <linearGradient id="paint4_linear_7998_16312" x1="3.8369" y1="24.6256" x2="9.27143" y2="19.2968" gradientUnits="userSpaceOnUse">
      <stop offset="0.1875" stop-color="#25E2EA"></stop>
      <stop offset="1" stop-color="#19A6D1"></stop>
    </linearGradient>
    <linearGradient id="paint5_linear_7998_16312" x1="5.64844" y1="23.0996" x2="7.71785" y2="20.9585" gradientUnits="userSpaceOnUse">
      <stop></stop>
      <stop offset="0.0001" stop-color="#E4FCFF"></stop>
      <stop offset="1" stop-color="#E4FCFF" stop-opacity="0"></stop>
    </linearGradient>
    <linearGradient id="paint6_linear_7998_16312" x1="0.53125" y1="17.9511" x2="3.24511" y2="15.1849" gradientUnits="userSpaceOnUse">
      <stop stop-color="#FFF5FE"></stop>
      <stop offset="0.769332" stop-color="#FFF5FE" stop-opacity="0"></stop>
    </linearGradient>
    <linearGradient id="paint7_linear_7998_16312" x1="1.09903" y1="22.4164" x2="6.93006" y2="16.467" gradientUnits="userSpaceOnUse">
      <stop stop-color="#F6EDFE"></stop>
      <stop offset="0.850896" stop-color="#A851F8" stop-opacity="0"></stop>
    </linearGradient>
    <linearGradient id="paint8_linear_7998_16312" x1="20.8027" y1="2.52981" x2="5.7209" y2="18.3137" gradientUnits="userSpaceOnUse">
      <stop offset="0.00924772" stop-color="#2D9FAB"></stop>
      <stop offset="0.0885417" stop-color="#2D9FAB" stop-opacity="0.823892"></stop>
      <stop offset="0.171875" stop-color="#2D9FAB" stop-opacity="0.8"></stop>
      <stop offset="0.302083" stop-color="#2D9FAB" stop-opacity="0.8"></stop>
      <stop offset="1" stop-color="white" stop-opacity="0.5"></stop>
    </linearGradient>
    <clipPath id="clip0_7998_16312">
      <rect width="110" height="24" fill="white"></rect>
    </clipPath>
    <clipPath id="clip1_7998_16312">
      <rect width="14" height="14" fill="white" transform="translate(66.125 34)"></rect>
    </clipPath>
  </defs>
</svg>
