<?xml version="1.0" encoding="UTF-8"?>
<svg xmlns="http://www.w3.org/2000/svg" width="110" height="50" viewBox="0 0 110 50" fill="none">
  <path d="M4.04811 2C2.36468 2 1 3.35321 1 5.02249V18.4863C1 20.1556 2.36469 21.5088 4.04811 21.5088H6.95766V28.174C6.95766 28.9084 7.85309 29.2762 8.37678 28.7569L15.6863 21.5088H55.5888C57.2722 21.5088 58.6369 20.1556 58.6369 18.4863V5.02249C58.6369 3.35321 57.2722 2 55.5888 2H4.04811Z" fill="#893494"></path>
  <path d="M10.2079 7.46706C10.5304 7.46706 10.8355 7.50703 11.1234 7.58696L10.7779 9.98487C10.4901 9.90494 10.1964 9.86498 9.89701 9.86498C9.17154 9.86498 8.54971 10.179 8.03151 10.807V16.2023H5.61328V7.72398H7.80696L7.9106 8.80304C8.55547 7.91239 9.32124 7.46706 10.2079 7.46706Z" fill="white"></path>
  <path d="M19.3029 11.4065C19.3029 11.8975 19.2799 12.28 19.2338 12.5541H13.6546C13.7467 13.2163 13.9828 13.6845 14.3628 13.9586C14.7543 14.2212 15.261 14.3525 15.8828 14.3525C16.804 14.3525 17.5813 14.1127 18.2147 13.6331L19.2165 15.363C18.3759 16.0824 17.1265 16.4421 15.4683 16.4421C14.121 16.4421 13.0615 16.0824 12.29 15.363C11.53 14.6322 11.15 13.5418 11.15 12.0916C11.15 10.7328 11.5415 9.62518 12.3246 8.76879C13.1191 7.90097 14.1728 7.46706 15.4855 7.46706C16.6831 7.46706 17.6159 7.80962 18.2838 8.49474C18.9632 9.16844 19.3029 10.139 19.3029 11.4065ZM15.4164 9.40252C14.4607 9.40252 13.8791 9.91636 13.6719 10.944H16.9883C16.9077 9.91636 16.3837 9.40252 15.4164 9.40252Z" fill="white"></path>
  <path d="M25.7762 7.72398H28.3327L25.0335 16.2023H22.598L19.4025 7.72398H22.0971L23.4444 12.006L23.8935 13.7016L24.3599 12.006L25.7762 7.72398Z" fill="white"></path>
  <path d="M31.3752 6.21673C31.0873 6.47935 30.7245 6.61067 30.287 6.61067C29.8494 6.61067 29.4809 6.47365 29.1815 6.1996C28.8936 5.92555 28.7496 5.56587 28.7496 5.12054C28.7496 4.65238 28.8936 4.28698 29.1815 4.02435C29.4809 3.7503 29.8494 3.61328 30.287 3.61328C30.7361 3.61328 31.1045 3.7503 31.3924 4.02435C31.6803 4.28698 31.8243 4.65238 31.8243 5.12054C31.8243 5.57728 31.6746 5.94268 31.3752 6.21673ZM29.0778 16.2023V7.72398H31.4961V16.2023H29.0778Z" fill="white"></path>
  <path d="M40.9955 11.4065C40.9955 11.8975 40.9724 12.28 40.9264 12.5541H35.3472C35.4393 13.2163 35.6754 13.6845 36.0554 13.9586C36.4469 14.2212 36.9536 14.3525 37.5754 14.3525C38.4966 14.3525 39.2739 14.1127 39.9073 13.6331L40.9091 15.363C40.0685 16.0824 38.8191 16.4421 37.1608 16.4421C35.8135 16.4421 34.7541 16.0824 33.9826 15.363C33.2226 14.6322 32.8426 13.5418 32.8426 12.0916C32.8426 10.7328 33.2341 9.62518 34.0171 8.76879C34.8117 7.90097 35.8654 7.46706 37.1781 7.46706C38.3757 7.46706 39.3085 7.80962 39.9764 8.49474C40.6558 9.16844 40.9955 10.139 40.9955 11.4065ZM37.109 9.40252C36.1532 9.40252 35.5717 9.91636 35.3644 10.944H38.6809C38.6003 9.91636 38.0763 9.40252 37.109 9.40252Z" fill="white"></path>
  <path d="M52.0104 7.72398H54.4114L51.6132 16.2023H49.3158L47.8131 10.7385L46.224 16.2023H43.8921L41.2148 7.72398H43.8575L44.8939 12.0916L45.153 13.4276L45.4639 12.0916L46.7421 7.72398H49.0395L50.2313 12.0574L50.5422 13.4276L50.8531 12.0574L52.0104 7.72398Z" fill="white"></path>
  <path d="M66.4648 16.2878C65.1835 16.2878 64.1719 15.9256 63.4301 15.2011C62.6883 14.4767 62.323 13.4123 62.3342 12.008C62.3342 10.6483 62.7389 9.56164 63.5481 8.74804C64.3686 7.93443 65.4027 7.52763 66.6503 7.52763C67.7743 7.52763 68.6959 7.78955 69.4153 8.31337L68.488 10.1189C67.9934 9.76226 67.4427 9.58393 66.8357 9.58393C66.1951 9.58393 65.6837 9.79012 65.3015 10.2025C64.9306 10.6037 64.7395 11.161 64.7283 11.8743C64.7171 12.6322 64.9081 13.2117 65.3015 13.6129C65.6949 14.003 66.2344 14.1981 66.92 14.1981C67.5832 14.1981 68.1396 14.003 68.5891 13.6129L69.4658 15.4352C68.7577 16.0036 67.7574 16.2878 66.4648 16.2878Z" fill="#3E1293"></path>
  <path d="M77.75 11.3728C77.75 11.852 77.7275 12.2254 77.6825 12.4928H72.2369C72.3268 13.1393 72.5572 13.5962 72.9281 13.8637C73.3103 14.1201 73.8048 14.2482 74.4118 14.2482C75.3109 14.2482 76.0696 14.0142 76.6878 13.5461L77.6657 15.2346C76.8452 15.9367 75.6257 16.2878 74.0071 16.2878C72.6921 16.2878 71.658 15.9367 70.905 15.2346C70.1631 14.5213 69.7922 13.4569 69.7922 12.0415C69.7922 10.7152 70.1744 9.63409 70.9387 8.79819C71.7142 7.95115 72.7427 7.52763 74.024 7.52763C75.1929 7.52763 76.1033 7.86199 76.7553 8.53071C77.4184 9.18828 77.75 10.1356 77.75 11.3728ZM73.9566 9.41676C73.0237 9.41676 72.4561 9.91829 72.2537 10.9214H75.4908C75.4121 9.91829 74.9007 9.41676 73.9566 9.41676Z" fill="#3E1293"></path>
  <path d="M84.0652 7.52763C84.9981 7.52763 85.7231 7.81184 86.2401 8.38025C86.7571 8.93751 87.0156 9.76783 87.0156 10.8712V16.0538H84.6553V11.3728C84.6553 10.2471 84.1776 9.68424 83.2222 9.68424C82.5591 9.68424 81.9578 9.92944 81.4182 10.4198V16.0538H79.0579V7.7784H81.1991L81.2834 8.68117C82.0364 7.91214 82.9637 7.52763 84.0652 7.52763Z" fill="#3E1293"></path>
  <path d="M93.9341 13.73L94.9963 15.385C94.4118 15.9869 93.5464 16.2878 92.3999 16.2878C91.3658 16.2878 90.5959 16.0538 90.0901 15.5857C89.5843 15.1064 89.3315 14.343 89.3315 13.2953V9.75111H87.7804V7.84527H89.4158V6.25866L91.6918 5.52148V7.7784H94.3725L93.6897 9.75111H91.6918V12.9275C91.6918 13.7411 92.0739 14.1479 92.8383 14.1479C93.3103 14.1479 93.6756 14.0086 93.9341 13.73Z" fill="#3E1293"></path>
  <path d="M108.999 11.3728C108.999 11.852 108.977 12.2254 108.932 12.4928H103.486C103.576 13.1393 103.807 13.5962 104.178 13.8637C104.56 14.1201 105.054 14.2482 105.661 14.2482C106.56 14.2482 107.319 14.0142 107.937 13.5461L108.915 15.2346C108.095 15.9367 106.875 16.2878 105.257 16.2878C103.942 16.2878 102.908 15.9367 102.154 15.2346C101.413 14.5213 101.042 13.4569 101.042 12.0415C101.042 10.7152 101.424 9.63409 102.188 8.79819C102.964 7.95115 103.992 7.52763 105.274 7.52763C106.442 7.52763 107.353 7.86199 108.005 8.53071C108.668 9.18828 108.999 10.1356 108.999 11.3728ZM105.206 9.41676C104.273 9.41676 103.706 9.91829 103.503 10.9214H106.74C106.662 9.91829 106.15 9.41676 105.206 9.41676Z" fill="#3E1293"></path>
  <path d="M100.122 7.52763C100.437 7.52763 100.735 7.56664 101.016 7.64466L100.34 9.91049C100.168 9.88226 99.9946 9.86814 99.8188 9.86814C99.1107 9.86814 98.5037 10.1746 97.9979 10.7876V16.0538H95.6376V7.7784H97.7788L97.8799 8.83163C98.5094 7.9623 99.2568 7.52763 100.122 7.52763Z" fill="#3E1293"></path>
  <circle cx="9.125" cy="41" r="7" fill="#EF6A23"></circle>
  <path d="M13.5871 40.2689L13.1186 40.7411C12.614 41.2699 12.1095 41.761 11.5869 42.2899C11.6049 42.3466 11.6049 42.4032 11.623 42.4599L12.0554 45.1987C12.0554 45.3309 12.0014 45.4442 11.8933 45.5198C11.7851 45.5765 11.677 45.5765 11.5869 45.5387C11.4608 45.4631 11.3166 45.3876 11.1905 45.312L9.91113 44.5943C9.64084 44.4432 9.38857 44.2921 9.11828 44.141C8.86601 44.2921 8.59572 44.4432 8.34345 44.5754L7.06408 45.2931C6.93794 45.3687 6.79379 45.4442 6.66766 45.5198C6.63162 45.5576 6.55954 45.5576 6.5235 45.5576C6.46944 45.5576 6.41539 45.5387 6.36133 45.5198C6.25321 45.4631 6.19915 45.3498 6.19915 45.1987V45.1609L6.63162 42.441C6.64964 42.3844 6.64964 42.3277 6.66766 42.271C6.16311 41.7422 5.65857 41.2511 5.13601 40.7222L4.66751 40.25C4.5594 40.1367 4.54138 40.0233 4.57741 39.8911C4.61345 39.7778 4.72157 39.6833 4.8477 39.6645C5.04592 39.6267 5.22611 39.6078 5.42432 39.57L7.35239 39.2678C7.44249 39.2489 7.51456 39.23 7.58664 39.23C7.62268 39.1734 7.6407 39.1167 7.67674 39.06C7.71278 38.9845 7.74881 38.9278 7.78485 38.8523L8.05514 38.2667C8.16326 38.059 8.25336 37.8512 8.34345 37.6434C8.50563 37.3034 8.6678 36.9634 8.82997 36.6235C8.88403 36.5101 8.99215 36.4346 9.1363 36.4346C9.24442 36.4346 9.37055 36.5101 9.42461 36.6235C9.58678 36.9634 9.74896 37.3034 9.91113 37.6434C10.0192 37.8512 10.1093 38.059 10.1994 38.2667L10.4697 38.8523C10.5058 38.9278 10.5418 38.9845 10.5778 39.06C10.6139 39.1167 10.6319 39.1734 10.6679 39.23C10.758 39.2489 10.8301 39.2678 10.9022 39.2678L12.8303 39.57C13.0285 39.6078 13.2087 39.6267 13.4069 39.6645C13.533 39.6833 13.6411 39.7778 13.6772 39.8911C13.7132 40.0422 13.6772 40.1555 13.5871 40.2689Z" fill="white"></path>
  <circle cx="25.125" cy="41" r="7" fill="#EF6A23"></circle>
  <path d="M29.5871 40.2689L29.1186 40.7411C28.614 41.2699 28.1095 41.761 27.5869 42.2899C27.6049 42.3466 27.6049 42.4032 27.623 42.4599L28.0554 45.1987C28.0554 45.3309 28.0014 45.4442 27.8933 45.5198C27.7851 45.5765 27.677 45.5765 27.5869 45.5387C27.4608 45.4631 27.3166 45.3876 27.1905 45.312L25.9111 44.5943C25.6408 44.4432 25.3886 44.2921 25.1183 44.141C24.866 44.2921 24.5957 44.4432 24.3435 44.5754L23.0641 45.2931C22.9379 45.3687 22.7938 45.4442 22.6677 45.5198C22.6316 45.5576 22.5595 45.5576 22.5235 45.5576C22.4694 45.5576 22.4154 45.5387 22.3613 45.5198C22.2532 45.4631 22.1992 45.3498 22.1992 45.1987V45.1609L22.6316 42.441C22.6496 42.3844 22.6496 42.3277 22.6677 42.271C22.1631 41.7422 21.6586 41.2511 21.136 40.7222L20.6675 40.25C20.5594 40.1367 20.5414 40.0233 20.5774 39.8911C20.6135 39.7778 20.7216 39.6833 20.8477 39.6645C21.0459 39.6267 21.2261 39.6078 21.4243 39.57L23.3524 39.2678C23.4425 39.2489 23.5146 39.23 23.5866 39.23C23.6227 39.1734 23.6407 39.1167 23.6767 39.06C23.7128 38.9845 23.7488 38.9278 23.7849 38.8523L24.0551 38.2667C24.1633 38.059 24.2534 37.8512 24.3435 37.6434C24.5056 37.3034 24.6678 36.9634 24.83 36.6235C24.884 36.5101 24.9921 36.4346 25.1363 36.4346C25.2444 36.4346 25.3706 36.5101 25.4246 36.6235C25.5868 36.9634 25.749 37.3034 25.9111 37.6434C26.0192 37.8512 26.1093 38.059 26.1994 38.2667L26.4697 38.8523C26.5058 38.9278 26.5418 38.9845 26.5778 39.06C26.6139 39.1167 26.6319 39.1734 26.6679 39.23C26.758 39.2489 26.8301 39.2678 26.9022 39.2678L28.8303 39.57C29.0285 39.6078 29.2087 39.6267 29.4069 39.6645C29.533 39.6833 29.6411 39.7778 29.6772 39.8911C29.7132 40.0422 29.6772 40.1555 29.5871 40.2689Z" fill="white"></path>
  <circle cx="41.125" cy="41" r="7" fill="#EF6A23"></circle>
  <path d="M45.5871 40.2689L45.1186 40.7411C44.614 41.2699 44.1095 41.761 43.5869 42.2899C43.6049 42.3466 43.6049 42.4032 43.623 42.4599L44.0554 45.1987C44.0554 45.3309 44.0014 45.4442 43.8933 45.5198C43.7851 45.5765 43.677 45.5765 43.5869 45.5387C43.4608 45.4631 43.3166 45.3876 43.1905 45.312L41.9111 44.5943C41.6408 44.4432 41.3886 44.2921 41.1183 44.141C40.866 44.2921 40.5957 44.4432 40.3435 44.5754L39.0641 45.2931C38.9379 45.3687 38.7938 45.4442 38.6677 45.5198C38.6316 45.5576 38.5595 45.5576 38.5235 45.5576C38.4694 45.5576 38.4154 45.5387 38.3613 45.5198C38.2532 45.4631 38.1992 45.3498 38.1992 45.1987V45.1609L38.6316 42.441C38.6496 42.3844 38.6496 42.3277 38.6677 42.271C38.1631 41.7422 37.6586 41.2511 37.136 40.7222L36.6675 40.25C36.5594 40.1367 36.5414 40.0233 36.5774 39.8911C36.6135 39.7778 36.7216 39.6833 36.8477 39.6645C37.0459 39.6267 37.2261 39.6078 37.4243 39.57L39.3524 39.2678C39.4425 39.2489 39.5146 39.23 39.5866 39.23C39.6227 39.1734 39.6407 39.1167 39.6767 39.06C39.7128 38.9845 39.7488 38.9278 39.7849 38.8523L40.0551 38.2667C40.1633 38.059 40.2534 37.8512 40.3435 37.6434C40.5056 37.3034 40.6678 36.9634 40.83 36.6235C40.884 36.5101 40.9921 36.4346 41.1363 36.4346C41.2444 36.4346 41.3706 36.5101 41.4246 36.6235C41.5868 36.9634 41.749 37.3034 41.9111 37.6434C42.0192 37.8512 42.1093 38.059 42.1994 38.2667L42.4697 38.8523C42.5058 38.9278 42.5418 38.9845 42.5778 39.06C42.6139 39.1167 42.6319 39.1734 42.6679 39.23C42.758 39.2489 42.8301 39.2678 42.9022 39.2678L44.8303 39.57C45.0285 39.6078 45.2087 39.6267 45.4069 39.6645C45.533 39.6833 45.6411 39.7778 45.6772 39.8911C45.7132 40.0422 45.6772 40.1555 45.5871 40.2689Z" fill="white"></path>
  <circle cx="57.125" cy="41" r="7" fill="#EF6A23"></circle>
  <path d="M61.5871 40.2689L61.1186 40.7411C60.614 41.2699 60.1095 41.761 59.5869 42.2899C59.6049 42.3466 59.6049 42.4032 59.623 42.4599L60.0554 45.1987C60.0554 45.3309 60.0014 45.4442 59.8933 45.5198C59.7851 45.5765 59.677 45.5765 59.5869 45.5387C59.4608 45.4631 59.3166 45.3876 59.1905 45.312L57.9111 44.5943C57.6408 44.4432 57.3886 44.2921 57.1183 44.141C56.866 44.2921 56.5957 44.4432 56.3435 44.5754L55.0641 45.2931C54.9379 45.3687 54.7938 45.4442 54.6677 45.5198C54.6316 45.5576 54.5595 45.5576 54.5235 45.5576C54.4694 45.5576 54.4154 45.5387 54.3613 45.5198C54.2532 45.4631 54.1992 45.3498 54.1992 45.1987V45.1609L54.6316 42.441C54.6496 42.3844 54.6496 42.3277 54.6677 42.271C54.1631 41.7422 53.6586 41.2511 53.136 40.7222L52.6675 40.25C52.5594 40.1367 52.5414 40.0233 52.5774 39.8911C52.6135 39.7778 52.7216 39.6833 52.8477 39.6645C53.0459 39.6267 53.2261 39.6078 53.4243 39.57L55.3524 39.2678C55.4425 39.2489 55.5146 39.23 55.5866 39.23C55.6227 39.1734 55.6407 39.1167 55.6767 39.06C55.7128 38.9845 55.7488 38.9278 55.7849 38.8523L56.0551 38.2667C56.1633 38.059 56.2534 37.8512 56.3435 37.6434C56.5056 37.3034 56.6678 36.9634 56.83 36.6235C56.884 36.5101 56.9921 36.4346 57.1363 36.4346C57.2444 36.4346 57.3706 36.5101 57.4246 36.6235C57.5868 36.9634 57.749 37.3034 57.9111 37.6434C58.0192 37.8512 58.1093 38.059 58.1994 38.2667L58.4697 38.8523C58.5058 38.9278 58.5418 38.9845 58.5778 39.06C58.6139 39.1167 58.6319 39.1734 58.6679 39.23C58.758 39.2489 58.8301 39.2678 58.9022 39.2678L60.8303 39.57C61.0285 39.6078 61.2087 39.6267 61.4069 39.6645C61.533 39.6833 61.6411 39.7778 61.6772 39.8911C61.7132 40.0422 61.6772 40.1555 61.5871 40.2689Z" fill="white"></path>
  <circle cx="73.125" cy="41" r="7" fill="#DCDCE6"></circle>
  <path d="M66.125 41C66.125 44.866 69.259 48 73.125 48V34C69.259 34 66.125 37.134 66.125 41Z" fill="#EF6A23"></path>
  <path d="M77.5871 40.2689L77.1186 40.7411C76.614 41.2699 76.1095 41.761 75.5869 42.2899C75.6049 42.3466 75.6049 42.4032 75.623 42.4599L76.0554 45.1987C76.0554 45.3309 76.0014 45.4442 75.8933 45.5198C75.7851 45.5765 75.677 45.5765 75.5869 45.5387C75.4608 45.4631 75.3166 45.3876 75.1905 45.312L73.9111 44.5943C73.6408 44.4432 73.3886 44.2921 73.1183 44.141C72.866 44.2921 72.5957 44.4432 72.3435 44.5754L71.0641 45.2931C70.9379 45.3687 70.7938 45.4442 70.6677 45.5198C70.6316 45.5576 70.5595 45.5576 70.5235 45.5576C70.4694 45.5576 70.4154 45.5387 70.3613 45.5198C70.2532 45.4631 70.1992 45.3498 70.1992 45.1987V45.1609L70.6316 42.441C70.6496 42.3844 70.6496 42.3277 70.6677 42.271C70.1631 41.7422 69.6586 41.2511 69.136 40.7222L68.6675 40.25C68.5594 40.1367 68.5414 40.0233 68.5774 39.8911C68.6135 39.7778 68.7216 39.6833 68.8477 39.6645C69.0459 39.6267 69.2261 39.6078 69.4243 39.57L71.3524 39.2678C71.4425 39.2489 71.5146 39.23 71.5866 39.23C71.6227 39.1734 71.6407 39.1167 71.6767 39.06C71.7128 38.9845 71.7488 38.9278 71.7849 38.8523L72.0551 38.2667C72.1633 38.059 72.2534 37.8512 72.3435 37.6434C72.5056 37.3034 72.6678 36.9634 72.83 36.6235C72.884 36.5101 72.9921 36.4346 73.1363 36.4346C73.2444 36.4346 73.3706 36.5101 73.4246 36.6235C73.5868 36.9634 73.749 37.3034 73.9111 37.6434C74.0192 37.8512 74.1093 38.059 74.1994 38.2667L74.4697 38.8523C74.5058 38.9278 74.5418 38.9845 74.5778 39.06C74.6139 39.1167 74.6319 39.1734 74.6679 39.23C74.758 39.2489 74.8301 39.2678 74.9022 39.2678L76.8303 39.57C77.0285 39.6078 77.2087 39.6267 77.4069 39.6645C77.533 39.6833 77.6411 39.7778 77.6772 39.8911C77.7132 40.0422 77.6772 40.1555 77.5871 40.2689Z" fill="white"></path>
  <path d="M86.2274 44.1108V42.6442L90.5477 35.8182H91.7707V37.9062H91.025L88.1166 42.5149V42.5945H94.1471V44.1108H86.2274ZM91.0846 46V43.6634L91.1045 43.0071V35.8182H92.8446V46H91.0846ZM96.577 46.1094C96.2754 46.1094 96.0168 46.0033 95.8014 45.7912C95.586 45.5791 95.4799 45.3205 95.4832 45.0156C95.4799 44.7173 95.586 44.4621 95.8014 44.25C96.0168 44.0379 96.2754 43.9318 96.577 43.9318C96.8686 43.9318 97.1222 44.0379 97.3376 44.25C97.5564 44.4621 97.6674 44.7173 97.6707 45.0156C97.6674 45.2178 97.6144 45.4018 97.5116 45.5675C97.4122 45.7332 97.2796 45.8658 97.1139 45.9652C96.9515 46.0613 96.7725 46.1094 96.577 46.1094ZM99.5537 46L103.884 37.429V37.3594H98.8577V35.8182H105.793V37.3942L101.468 46H99.5537Z" fill="#1A232B"></path>
</svg>
