<?xml version="1.0" encoding="UTF-8"?>
<svg xmlns="http://www.w3.org/2000/svg" width="133" height="46" viewBox="0 0 133 46" fill="none">
  <path d="M0.866477 5.61364V4.36364H9.59375V5.61364H5.93466V16H4.52557V5.61364H0.866477ZM10.6804 16V7.27273H11.9759V8.59091H12.0668C12.2259 8.15909 12.5137 7.80871 12.9304 7.53977C13.3471 7.27083 13.8168 7.13636 14.3395 7.13636C14.438 7.13636 14.5611 7.13826 14.7088 7.14205C14.8565 7.14583 14.9683 7.15152 15.044 7.15909V8.52273C14.9986 8.51136 14.8944 8.49432 14.7315 8.47159C14.5724 8.44508 14.4039 8.43182 14.2259 8.43182C13.8016 8.43182 13.4228 8.52083 13.0895 8.69886C12.7599 8.87311 12.4986 9.11553 12.3054 9.42614C12.116 9.73295 12.0213 10.0833 12.0213 10.4773V16H10.6804ZM19.2017 16.2045C18.6487 16.2045 18.1468 16.1004 17.696 15.892C17.2453 15.6799 16.8873 15.375 16.6222 14.9773C16.357 14.5758 16.2244 14.0909 16.2244 13.5227C16.2244 13.0227 16.3229 12.6174 16.5199 12.3068C16.7169 11.9924 16.9801 11.7462 17.3097 11.5682C17.6392 11.3902 18.0028 11.2576 18.4006 11.1705C18.8021 11.0795 19.2055 11.0076 19.6108 10.9545C20.1411 10.8864 20.571 10.8352 20.9006 10.8011C21.2339 10.7633 21.4763 10.7008 21.6278 10.6136C21.7831 10.5265 21.8608 10.375 21.8608 10.1591V10.1136C21.8608 9.55303 21.7074 9.11742 21.4006 8.80682C21.0975 8.49621 20.6373 8.34091 20.0199 8.34091C19.3797 8.34091 18.8778 8.48106 18.5142 8.76136C18.1506 9.04167 17.8949 9.34091 17.7472 9.65909L16.4744 9.20455C16.7017 8.67424 17.0047 8.26136 17.3835 7.96591C17.7661 7.66667 18.1828 7.45833 18.6335 7.34091C19.0881 7.2197 19.535 7.15909 19.9744 7.15909C20.2547 7.15909 20.5767 7.19318 20.9403 7.26136C21.3078 7.32576 21.6619 7.46023 22.0028 7.66477C22.3475 7.86932 22.6335 8.17803 22.8608 8.59091C23.0881 9.00379 23.2017 9.55682 23.2017 10.25V16H21.8608V14.8182H21.7926C21.7017 15.0076 21.5502 15.2102 21.3381 15.4261C21.1259 15.642 20.8438 15.8258 20.4915 15.9773C20.1392 16.1288 19.7093 16.2045 19.2017 16.2045ZM19.4062 15C19.9366 15 20.3835 14.8958 20.7472 14.6875C21.1146 14.4792 21.3911 14.2102 21.5767 13.8807C21.7661 13.5511 21.8608 13.2045 21.8608 12.8409V11.6136C21.804 11.6818 21.679 11.7443 21.4858 11.8011C21.2964 11.8542 21.0767 11.9015 20.8267 11.9432C20.5805 11.9811 20.34 12.0152 20.1051 12.0455C19.8741 12.072 19.6866 12.0947 19.5426 12.1136C19.1941 12.1591 18.8684 12.233 18.5653 12.3352C18.2661 12.4337 18.0237 12.5833 17.8381 12.7841C17.6563 12.9811 17.5653 13.25 17.5653 13.5909C17.5653 14.0568 17.7377 14.4091 18.0824 14.6477C18.4309 14.8826 18.8722 15 19.4062 15ZM32.473 7.27273L29.2457 16H27.8821L24.6548 7.27273H26.1094L28.5185 14.2273H28.6094L31.0185 7.27273H32.473ZM37.5895 16.1818C36.7486 16.1818 36.0232 15.9962 35.4134 15.625C34.8073 15.25 34.3395 14.7273 34.0099 14.0568C33.6842 13.3826 33.5213 12.5985 33.5213 11.7045C33.5213 10.8106 33.6842 10.0227 34.0099 9.34091C34.3395 8.6553 34.7978 8.12121 35.3849 7.73864C35.9759 7.35227 36.6652 7.15909 37.4531 7.15909C37.9077 7.15909 38.3565 7.23485 38.7997 7.38636C39.2429 7.53788 39.6463 7.78409 40.0099 8.125C40.3736 8.46212 40.6634 8.90909 40.8793 9.46591C41.0952 10.0227 41.2031 10.7083 41.2031 11.5227V12.0909H34.4759V10.9318H39.8395C39.8395 10.4394 39.741 10 39.544 9.61364C39.3509 9.22727 39.0743 8.92235 38.7145 8.69886C38.3584 8.47538 37.938 8.36364 37.4531 8.36364C36.919 8.36364 36.4569 8.49621 36.0668 8.76136C35.6804 9.02273 35.383 9.36364 35.1747 9.78409C34.9664 10.2045 34.8622 10.6553 34.8622 11.1364V11.9091C34.8622 12.5682 34.9759 13.1269 35.2031 13.5852C35.4342 14.0398 35.7543 14.3864 36.1634 14.625C36.5724 14.8598 37.0478 14.9773 37.5895 14.9773C37.9418 14.9773 38.2599 14.928 38.544 14.8295C38.8319 14.7273 39.08 14.5758 39.2884 14.375C39.4967 14.1705 39.6577 13.9167 39.7713 13.6136L41.0668 13.9773C40.9304 14.4167 40.7012 14.803 40.3793 15.1364C40.0573 15.4659 39.6596 15.7235 39.1861 15.9091C38.7126 16.0909 38.1804 16.1818 37.5895 16.1818ZM44.5838 4.36364V16H43.2429V4.36364H44.5838ZM50.6989 16.1818C49.858 16.1818 49.1326 15.9962 48.5227 15.625C47.9167 15.25 47.4489 14.7273 47.1193 14.0568C46.7936 13.3826 46.6307 12.5985 46.6307 11.7045C46.6307 10.8106 46.7936 10.0227 47.1193 9.34091C47.4489 8.6553 47.9072 8.12121 48.4943 7.73864C49.0852 7.35227 49.7746 7.15909 50.5625 7.15909C51.017 7.15909 51.4659 7.23485 51.9091 7.38636C52.3523 7.53788 52.7557 7.78409 53.1193 8.125C53.483 8.46212 53.7727 8.90909 53.9886 9.46591C54.2045 10.0227 54.3125 10.7083 54.3125 11.5227V12.0909H47.5852V10.9318H52.9489C52.9489 10.4394 52.8504 10 52.6534 9.61364C52.4602 9.22727 52.1837 8.92235 51.8239 8.69886C51.4678 8.47538 51.0473 8.36364 50.5625 8.36364C50.0284 8.36364 49.5663 8.49621 49.1761 8.76136C48.7898 9.02273 48.4924 9.36364 48.2841 9.78409C48.0758 10.2045 47.9716 10.6553 47.9716 11.1364V11.9091C47.9716 12.5682 48.0852 13.1269 48.3125 13.5852C48.5436 14.0398 48.8636 14.3864 49.2727 14.625C49.6818 14.8598 50.1572 14.9773 50.6989 14.9773C51.0511 14.9773 51.3693 14.928 51.6534 14.8295C51.9413 14.7273 52.1894 14.5758 52.3977 14.375C52.6061 14.1705 52.767 13.9167 52.8807 13.6136L54.1761 13.9773C54.0398 14.4167 53.8106 14.803 53.4886 15.1364C53.1667 15.4659 52.7689 15.7235 52.2955 15.9091C51.822 16.0909 51.2898 16.1818 50.6989 16.1818ZM56.3523 16V7.27273H57.6477V8.59091H57.7386C57.8977 8.15909 58.1856 7.80871 58.6023 7.53977C59.0189 7.27083 59.4886 7.13636 60.0114 7.13636C60.1098 7.13636 60.233 7.13826 60.3807 7.14205C60.5284 7.14583 60.6402 7.15152 60.7159 7.15909V8.52273C60.6705 8.51136 60.5663 8.49432 60.4034 8.47159C60.2443 8.44508 60.0758 8.43182 59.8977 8.43182C59.4735 8.43182 59.0947 8.52083 58.7614 8.69886C58.4318 8.87311 58.1705 9.11553 57.9773 9.42614C57.7879 9.73295 57.6932 10.0833 57.6932 10.4773V16H56.3523ZM68.4872 9.22727L67.2827 9.56818C67.2069 9.36742 67.0952 9.17235 66.9474 8.98295C66.8035 8.78977 66.6065 8.63068 66.3565 8.50568C66.1065 8.38068 65.7865 8.31818 65.3963 8.31818C64.8622 8.31818 64.4171 8.44129 64.0611 8.6875C63.7088 8.92992 63.5327 9.23864 63.5327 9.61364C63.5327 9.94697 63.6539 10.2102 63.8963 10.4034C64.1387 10.5966 64.5175 10.7576 65.0327 10.8864L66.3281 11.2045C67.1084 11.3939 67.6899 11.6837 68.0724 12.0739C68.455 12.4602 68.6463 12.9583 68.6463 13.5682C68.6463 14.0682 68.5024 14.5152 68.2145 14.9091C67.9304 15.303 67.5327 15.6136 67.0213 15.8409C66.5099 16.0682 65.9152 16.1818 65.2372 16.1818C64.3471 16.1818 63.6103 15.9886 63.027 15.6023C62.4437 15.2159 62.0743 14.6515 61.919 13.9091L63.1918 13.5909C63.313 14.0606 63.5421 14.4129 63.8793 14.6477C64.2202 14.8826 64.6652 15 65.2145 15C65.8395 15 66.3357 14.8674 66.7031 14.6023C67.0743 14.3333 67.2599 14.0114 67.2599 13.6364C67.2599 13.3333 67.1539 13.0795 66.9418 12.875C66.7296 12.6667 66.4039 12.5114 65.9645 12.4091L64.5099 12.0682C63.7107 11.8788 63.1236 11.5852 62.7486 11.1875C62.3774 10.786 62.1918 10.2841 62.1918 9.68182C62.1918 9.18939 62.33 8.75379 62.6065 8.375C62.8868 7.99621 63.2675 7.69886 63.7486 7.48295C64.2334 7.26705 64.7827 7.15909 65.3963 7.15909C66.2599 7.15909 66.938 7.34848 67.4304 7.72727C67.9266 8.10606 68.2789 8.60606 68.4872 9.22727ZM78.821 7.27273V8.86364H73.804V7.27273H78.821ZM75.0426 5.18182H77.0994V13.375C77.0994 13.6515 77.1411 13.8636 77.2244 14.0114C77.3116 14.1553 77.4252 14.2538 77.5653 14.3068C77.7055 14.3598 77.8608 14.3864 78.0312 14.3864C78.16 14.3864 78.2775 14.3769 78.3835 14.358C78.4934 14.339 78.5767 14.322 78.6335 14.3068L78.9801 15.9148C78.8703 15.9527 78.7131 15.9943 78.5085 16.0398C78.3078 16.0852 78.0616 16.1117 77.7699 16.1193C77.2547 16.1345 76.7907 16.0568 76.3778 15.8864C75.965 15.7121 75.6373 15.4432 75.3949 15.0795C75.1563 14.7159 75.0388 14.2614 75.0426 13.7159V5.18182ZM80.5412 16V7.27273H82.5355V8.72727H82.6264C82.7855 8.22348 83.0582 7.83523 83.4446 7.5625C83.8348 7.28598 84.2798 7.14773 84.7798 7.14773C84.8935 7.14773 85.0204 7.15341 85.1605 7.16477C85.3045 7.17235 85.4238 7.18561 85.5185 7.20455V9.09659C85.4313 9.06629 85.2931 9.03977 85.1037 9.01705C84.9181 8.99053 84.7382 8.97727 84.5639 8.97727C84.1889 8.97727 83.8518 9.05871 83.5526 9.22159C83.2571 9.38068 83.0241 9.60227 82.8537 9.88636C82.6832 10.1705 82.598 10.4981 82.598 10.8693V16H80.5412ZM92.4474 12.3295V7.27273H94.5043V16H92.5099V14.4489H92.419C92.2221 14.9375 91.8982 15.3371 91.4474 15.6477C91.0005 15.9583 90.4493 16.1136 89.794 16.1136C89.2221 16.1136 88.7164 15.9867 88.277 15.733C87.8414 15.4754 87.5005 15.1023 87.2543 14.6136C87.008 14.1212 86.8849 13.5265 86.8849 12.8295V7.27273H88.9418V12.5114C88.9418 13.0644 89.0933 13.5038 89.3963 13.8295C89.6993 14.1553 90.0971 14.3182 90.5895 14.3182C90.8925 14.3182 91.1861 14.2443 91.4702 14.0966C91.7543 13.9489 91.9872 13.7292 92.169 13.4375C92.3546 13.142 92.4474 12.7727 92.4474 12.3295ZM103.517 9.57955L101.642 9.78409C101.589 9.5947 101.496 9.41667 101.364 9.25C101.235 9.08333 101.061 8.94886 100.841 8.84659C100.621 8.74432 100.352 8.69318 100.034 8.69318C99.6061 8.69318 99.2462 8.78598 98.9545 8.97159C98.6667 9.1572 98.5246 9.39773 98.5284 9.69318C98.5246 9.94697 98.6174 10.1534 98.8068 10.3125C99 10.4716 99.3182 10.6023 99.7614 10.7045L101.25 11.0227C102.076 11.2008 102.689 11.483 103.091 11.8693C103.496 12.2557 103.701 12.7614 103.705 13.3864C103.701 13.9356 103.54 14.4205 103.222 14.8409C102.907 15.2576 102.47 15.5833 101.909 15.8182C101.348 16.053 100.705 16.1705 99.9773 16.1705C98.9091 16.1705 98.0492 15.947 97.3977 15.5C96.7462 15.0492 96.358 14.4223 96.233 13.6193L98.2386 13.4261C98.3295 13.8201 98.5227 14.1174 98.8182 14.3182C99.1136 14.5189 99.4981 14.6193 99.9716 14.6193C100.46 14.6193 100.852 14.5189 101.148 14.3182C101.447 14.1174 101.597 13.8693 101.597 13.5739C101.597 13.3239 101.5 13.1174 101.307 12.9545C101.117 12.7917 100.822 12.6667 100.42 12.5795L98.9318 12.267C98.0947 12.0928 97.4754 11.7992 97.0739 11.3864C96.6723 10.9697 96.4735 10.4432 96.4773 9.80682C96.4735 9.26894 96.6193 8.80303 96.9148 8.40909C97.214 8.01136 97.6288 7.70455 98.1591 7.48864C98.6932 7.26894 99.3087 7.15909 100.006 7.15909C101.028 7.15909 101.833 7.37689 102.42 7.8125C103.011 8.24811 103.377 8.83712 103.517 9.57955ZM109.759 7.27273V8.86364H104.741V7.27273H109.759ZM105.98 5.18182H108.037V13.375C108.037 13.6515 108.079 13.8636 108.162 14.0114C108.249 14.1553 108.363 14.2538 108.503 14.3068C108.643 14.3598 108.798 14.3864 108.969 14.3864C109.098 14.3864 109.215 14.3769 109.321 14.358C109.431 14.339 109.514 14.322 109.571 14.3068L109.918 15.9148C109.808 15.9527 109.651 15.9943 109.446 16.0398C109.245 16.0852 108.999 16.1117 108.707 16.1193C108.192 16.1345 107.728 16.0568 107.315 15.8864C106.902 15.7121 106.575 15.4432 106.332 15.0795C106.094 14.7159 105.976 14.2614 105.98 13.7159V5.18182ZM121.01 12.3295V7.27273H123.067V16H121.072V14.4489H120.982C120.785 14.9375 120.461 15.3371 120.01 15.6477C119.563 15.9583 119.012 16.1136 118.357 16.1136C117.785 16.1136 117.279 15.9867 116.839 15.733C116.404 15.4754 116.063 15.1023 115.817 14.6136C115.571 14.1212 115.447 13.5265 115.447 12.8295V7.27273H117.504V12.5114C117.504 13.0644 117.656 13.5038 117.959 13.8295C118.262 14.1553 118.66 14.3182 119.152 14.3182C119.455 14.3182 119.749 14.2443 120.033 14.0966C120.317 13.9489 120.55 13.7292 120.732 13.4375C120.917 13.142 121.01 12.7727 121.01 12.3295ZM132.08 9.57955L130.205 9.78409C130.152 9.5947 130.059 9.41667 129.926 9.25C129.797 9.08333 129.623 8.94886 129.403 8.84659C129.184 8.74432 128.915 8.69318 128.597 8.69318C128.169 8.69318 127.809 8.78598 127.517 8.97159C127.229 9.1572 127.087 9.39773 127.091 9.69318C127.087 9.94697 127.18 10.1534 127.369 10.3125C127.563 10.4716 127.881 10.6023 128.324 10.7045L129.812 11.0227C130.638 11.2008 131.252 11.483 131.653 11.8693C132.059 12.2557 132.263 12.7614 132.267 13.3864C132.263 13.9356 132.102 14.4205 131.784 14.8409C131.47 15.2576 131.032 15.5833 130.472 15.8182C129.911 16.053 129.267 16.1705 128.54 16.1705C127.472 16.1705 126.612 15.947 125.96 15.5C125.309 15.0492 124.92 14.4223 124.795 13.6193L126.801 13.4261C126.892 13.8201 127.085 14.1174 127.381 14.3182C127.676 14.5189 128.061 14.6193 128.534 14.6193C129.023 14.6193 129.415 14.5189 129.71 14.3182C130.009 14.1174 130.159 13.8693 130.159 13.5739C130.159 13.3239 130.063 13.1174 129.869 12.9545C129.68 12.7917 129.384 12.6667 128.983 12.5795L127.494 12.267C126.657 12.0928 126.038 11.7992 125.636 11.3864C125.235 10.9697 125.036 10.4432 125.04 9.80682C125.036 9.26894 125.182 8.80303 125.477 8.40909C125.777 8.01136 126.191 7.70455 126.722 7.48864C127.256 7.26894 127.871 7.15909 128.568 7.15909C129.591 7.15909 130.396 7.37689 130.983 7.8125C131.574 8.24811 131.939 8.83712 132.08 9.57955Z" fill="#1A232B"></path>
  <path d="M8.00125 41.173L3.29924 43.805L4.34924 38.5197L0.392578 34.861L5.74391 34.2263L8.00125 29.333L10.2586 34.2263L15.6099 34.861L11.6532 38.5197L12.7032 43.805L8.00125 41.173Z" fill="#25ACAA"></path>
  <path d="M25.0012 41.173L20.2992 43.805L21.3492 38.5197L17.3926 34.861L22.7439 34.2263L25.0012 29.333L27.2586 34.2263L32.6099 34.861L28.6532 38.5197L29.7032 43.805L25.0012 41.173Z" fill="#25ACAA"></path>
  <path d="M42.0012 41.173L37.2992 43.805L38.3492 38.5197L34.3926 34.861L39.7439 34.2263L42.0012 29.333L44.2586 34.2263L49.6099 34.861L45.6532 38.5197L46.7032 43.805L42.0012 41.173Z" fill="#25ACAA"></path>
  <path d="M59.0012 41.173L54.2992 43.805L55.3492 38.5197L51.3926 34.861L56.7439 34.2263L59.0012 29.333L61.2586 34.2263L66.6099 34.861L62.6532 38.5197L63.7032 43.805L59.0012 41.173Z" fill="#25ACAA"></path>
  <path d="M76.0012 41.173L71.2992 43.805L72.3492 38.5197L68.3926 34.861L73.7439 34.2263L76.0012 29.333L78.2586 34.2263L83.6099 34.861L79.6532 38.5197L80.7032 43.805L76.0012 41.173Z" fill="#DCDCE6"></path>
  <path fill-rule="evenodd" clip-rule="evenodd" d="M76.0007 29.334V41.1731L71.2992 43.8048L72.3492 38.5195L68.3926 34.8608L73.7439 34.2261L76.0007 29.334Z" fill="#25ACAA"></path>
  <path d="M90.1024 40.1108V38.6442L94.4227 31.8182H95.6457V33.9062H94.9L91.9916 38.5149V38.5945H98.0221V40.1108H90.1024ZM94.9596 42V39.6634L94.9795 39.0071V31.8182H96.7196V42H94.9596ZM100.452 42.1094C100.15 42.1094 99.8918 42.0033 99.6764 41.7912C99.461 41.5791 99.3549 41.3205 99.3582 41.0156C99.3549 40.7173 99.461 40.4621 99.6764 40.25C99.8918 40.0379 100.15 39.9318 100.452 39.9318C100.744 39.9318 100.997 40.0379 101.213 40.25C101.431 40.4621 101.542 40.7173 101.546 41.0156C101.542 41.2178 101.489 41.4018 101.387 41.5675C101.287 41.7332 101.155 41.8658 100.989 41.9652C100.827 42.0613 100.648 42.1094 100.452 42.1094ZM103.429 42L107.759 33.429V33.3594H102.733V31.8182H109.668V33.3942L105.343 42H103.429Z" fill="#1A232B"></path>
</svg>
