<svg xmlns="http://www.w3.org/2000/svg" style="display:none" version="2.0" width="24" height="22"><defs><symbol id="testimonial-star" viewBox="0 0 24 22"><path d="M0 2C0 0.89543 0.895431 0 2 0H22C23.1046 0 24 0.895431 24 2V20C24 21.1046 23.1046 22 22 22H2C0.89543 22 0 21.1046 0 20V2Z" fill="currentColor"/><path d="M11.8159 4.43449C11.8848 4.27188 12.1152 4.27188 12.1841 4.43449L14.0859 8.92156L19.0133 9.30923C19.1916 9.32326 19.2632 9.54656 19.1263 9.66171L15.375 12.8152L16.5223 17.5354C16.5643 17.7079 16.3774 17.8454 16.2252 17.7542L12 15.2216L7.77484 17.7542C7.62259 17.8454 7.43575 17.7079 7.47767 17.5354L8.625 12.8152L4.87374 9.66171C4.73677 9.54656 4.80836 9.32326 4.98675 9.30923L9.91414 8.92156L11.8159 4.43449Z" fill="white"/></symbol></defs><use href="#testimonial-star"/></svg>