<svg width="88" height="16" viewBox="0 0 88 16" fill="none" xmlns="http://www.w3.org/2000/svg"><path d="M7.99929 12.173L3.29729 14.805L4.34729 9.51967L0.390625 5.86101L5.74196 5.22634L7.99929 0.333008L10.2566 5.22634L15.608 5.86101L11.6513 9.51967L12.7013 14.805L7.99929 12.173Z" fill="#FFC700"/><path d="M25.9993 12.173L21.2973 14.805L22.3473 9.51967L18.3906 5.86101L23.742 5.22634L25.9993 0.333008L28.2566 5.22634L33.608 5.86101L29.6513 9.51967L30.7013 14.805L25.9993 12.173Z" fill="#FFC700"/><path d="M43.9993 12.173L39.2973 14.805L40.3473 9.51967L36.3906 5.86101L41.742 5.22634L43.9993 0.333008L46.2566 5.22634L51.608 5.86101L47.6513 9.51967L48.7013 14.805L43.9993 12.173Z" fill="#FFC700"/><path d="M61.9993 12.173L57.2973 14.805L58.3473 9.51967L54.3906 5.86101L59.742 5.22634L61.9993 0.333008L64.2566 5.22634L69.608 5.86101L65.6513 9.51967L66.7013 14.805L61.9993 12.173Z" fill="#FFC700"/><path d="M79.9993 12.173L75.2973 14.805L76.3473 9.51967L72.3906 5.86101L77.742 5.22634L79.9993 0.333008L82.2566 5.22634L87.608 5.86101L83.6513 9.51967L84.7013 14.805L79.9993 12.173Z" fill="#C3CCD5"/><path fill-rule="evenodd" clip-rule="evenodd" d="M80 0.337472V12.1763L79.9993 12.1759L75.2973 14.8079L76.3473 9.5226L72.3906 5.86394L77.742 5.22927L79.9993 0.335938L80 0.337472Z" fill="#FFC700"/></svg>