<?xml version="1.0" encoding="UTF-8"?>
<svg xmlns="http://www.w3.org/2000/svg" width="152" height="36" viewBox="0 0 152 36" fill="none">
  <path d="M64.237 2.27073C63.7964 2.32368 63.4267 2.68708 63.3675 3.12683L60.4237 25.4122C60.3879 25.678 60.5946 25.9144 60.8628 25.9144H66.4255C66.6331 25.9144 66.8128 25.7703 66.858 25.5678L71.8984 2.51988C72.0319 1.92167 71.5352 1.37145 70.927 1.44697C69.099 1.67392 65.7434 2.08966 64.237 2.27073Z" fill="url(#paint0_linear_755_4702)"></path>
  <path d="M62.8484 28.3569C65.3488 28.3569 67.2985 29.3052 67.2985 31.0708C67.2985 32.8364 64.9808 34.56 61.2302 34.56C59.1904 34.56 57.9938 32.8364 57.9938 31.0708C57.9938 28.9521 60.2822 28.3569 62.8484 28.3569Z" fill="url(#paint1_linear_755_4702)"></path>
  <path d="M60.4987 7.08965C60.5342 6.82059 60.3216 6.58315 60.0503 6.58874L57.467 6.642C57.2768 6.64593 57.1103 6.77083 57.0534 6.95236L54.0189 16.6248L53.2164 9.46375C53.1908 9.2358 52.9955 9.06503 52.7662 9.07013L47.5875 9.18521C47.4141 9.18906 47.2589 9.29374 47.1903 9.45307L44.8903 14.7991L45.0739 5.10215C45.0789 4.84101 44.858 4.63228 44.5976 4.65194L39.6347 5.02665C39.3994 5.04442 39.2193 5.24346 39.2251 5.47934L39.2649 7.10251C39.2671 7.18979 39.2949 7.27404 39.3443 7.34603C41.7705 10.8816 42.8596 16.1094 41.5946 22.1082C41.2242 23.9159 40.6198 25.5357 39.8261 26.9506C39.7865 27.0211 39.7662 27.101 39.7682 27.1819L39.7916 28.1136C39.7983 28.3825 40.0412 28.5834 40.3066 28.5396L45.4918 27.6849C45.6446 27.6597 45.7732 27.5566 45.8309 27.4129L48.8026 20.0155L49.6062 28.4845C49.6301 28.7369 49.8605 28.9177 50.1113 28.8811L55.1936 28.1387C55.3538 28.1153 55.4885 28.0064 55.5448 27.8547L58.9618 18.6595C58.9733 18.6284 58.9814 18.596 58.9857 18.5631L60.4987 7.08965Z" fill="url(#paint2_linear_755_4702)"></path>
  <path fill-rule="evenodd" clip-rule="evenodd" d="M23.2576 25.6092C23.2333 25.7174 23.2502 25.8312 23.3073 25.9264C24.5033 27.9222 26.3157 29.2912 28.5721 29.4886C33.733 29.9402 38.3132 26.7146 39.5389 20.8442C41.2162 13.0384 37.4746 6.97436 32.3782 6.26475C30.8173 6.06963 29.0156 6.64528 27.332 7.90843C27.2495 7.97036 27.1925 8.0604 27.1699 8.16109L23.2576 25.6092ZM34.1845 20.0055C33.6684 22.586 31.9912 24.0052 30.1204 23.8762C28.2495 23.7472 27.2174 20.8442 27.798 18.1347C28.4431 15.1672 30.3139 13.4899 31.6041 13.6835C33.5394 13.9415 34.7651 17.1671 34.1845 20.0055Z" fill="url(#paint3_linear_755_4702)"></path>
  <path d="M2.14456 4.27626C1.91885 4.32444 1.76793 4.53782 1.79768 4.76668L4.87866 28.4713C4.91182 28.7265 5.15456 28.8998 5.40663 28.8484L11.0307 27.7006C11.2109 27.6638 11.3497 27.5195 11.3793 27.3379L12.9602 17.6632L15.2306 27.565C15.2759 27.7623 15.4491 27.9038 15.6514 27.9089L20.1601 28.0216C20.3715 28.0269 20.5572 27.882 20.6035 27.6756L26.065 3.31848C26.1303 3.02711 25.8946 2.75585 25.597 2.7799L20.0813 3.22561C19.881 3.2418 19.7166 3.39086 19.681 3.5887L17.8505 13.751L15.8128 6.6499C15.7486 6.4261 15.5221 6.29019 15.2944 6.3388L10.1641 7.43402C9.99961 7.46915 9.86917 7.59443 9.82743 7.75741L8.52627 12.8381L7.59776 3.61489C7.57132 3.35225 7.32255 3.17085 7.06441 3.22596L2.14456 4.27626Z" fill="url(#paint4_linear_755_4702)"></path>
  <path d="M117.237 16.7123H115.27L115.621 12.3221H117.588C118.853 12.3221 119.695 13.2426 119.555 14.5172C119.485 15.8626 118.572 16.7123 117.237 16.7123Z" fill="url(#paint5_linear_755_4702)"></path>
  <path d="M100.94 12.6077L98.9033 18.9098H102.135L101.011 12.6077H100.94Z" fill="url(#paint6_linear_755_4702)"></path>
  <path fill-rule="evenodd" clip-rule="evenodd" d="M145.446 2.88562H79.4667C77.8095 2.88562 76.3735 4.03383 76.0089 5.65041L71.6889 27.3612C71.189 29.5777 72.8488 31.6856 75.121 31.6856H141.126C142.783 31.6856 144.219 30.5374 144.583 28.9208L148.903 7.21007C149.403 4.9935 147.718 2.88562 145.446 2.88562ZM118.291 8.63998H111.126L109.85 25.92H114.626L115.059 20.0404H116.605L118.8 25.9199H124.138L121.522 19.3323C123.278 18.4826 124.332 16.4999 124.472 14.4464C124.683 10.7643 122.646 8.63998 118.291 8.63998ZM86.1189 16.0065H92.0897L91.879 19.8303H85.838L85.4165 25.9199H80.6399L81.9054 8.64239H93.2849L93.0029 12.7493H86.3297L86.1189 16.0065ZM96.6555 25.92H91.8087L98.3307 8.64239H104.231L108.316 25.92H103.258L102.696 22.5211H97.7794L96.6555 25.92ZM138.24 8.64239L137.959 12.7493H131.286L131.075 15.5109H137.327L137.046 19.1222H130.794L130.583 21.9546H137.256L136.957 25.9199H125.539L126.79 8.64239H138.24Z" fill="url(#paint7_linear_755_4702)"></path>
  <defs>
    <linearGradient id="paint0_linear_755_4702" x1="75.3928" y1="1.44" x2="75.3928" y2="34.56" gradientUnits="userSpaceOnUse">
      <stop stop-color="#25ACAA"></stop>
      <stop offset="1" stop-color="#0DA3A1"></stop>
    </linearGradient>
    <linearGradient id="paint1_linear_755_4702" x1="75.3928" y1="1.44" x2="75.3928" y2="34.56" gradientUnits="userSpaceOnUse">
      <stop stop-color="#25ACAA"></stop>
      <stop offset="1" stop-color="#0DA3A1"></stop>
    </linearGradient>
    <linearGradient id="paint2_linear_755_4702" x1="75.3928" y1="1.44" x2="75.3928" y2="34.56" gradientUnits="userSpaceOnUse">
      <stop stop-color="#25ACAA"></stop>
      <stop offset="1" stop-color="#0DA3A1"></stop>
    </linearGradient>
    <linearGradient id="paint3_linear_755_4702" x1="75.3928" y1="1.44" x2="75.3928" y2="34.56" gradientUnits="userSpaceOnUse">
      <stop stop-color="#25ACAA"></stop>
      <stop offset="1" stop-color="#0DA3A1"></stop>
    </linearGradient>
    <linearGradient id="paint4_linear_755_4702" x1="75.3928" y1="1.44" x2="75.3928" y2="34.56" gradientUnits="userSpaceOnUse">
      <stop stop-color="#25ACAA"></stop>
      <stop offset="1" stop-color="#0DA3A1"></stop>
    </linearGradient>
    <linearGradient id="paint5_linear_755_4702" x1="75.3928" y1="1.44" x2="75.3928" y2="34.56" gradientUnits="userSpaceOnUse">
      <stop stop-color="#25ACAA"></stop>
      <stop offset="1" stop-color="#0DA3A1"></stop>
    </linearGradient>
    <linearGradient id="paint6_linear_755_4702" x1="75.3928" y1="1.44" x2="75.3928" y2="34.56" gradientUnits="userSpaceOnUse">
      <stop stop-color="#25ACAA"></stop>
      <stop offset="1" stop-color="#0DA3A1"></stop>
    </linearGradient>
    <linearGradient id="paint7_linear_755_4702" x1="75.3928" y1="1.44" x2="75.3928" y2="34.56" gradientUnits="userSpaceOnUse">
      <stop stop-color="#25ACAA"></stop>
      <stop offset="1" stop-color="#0DA3A1"></stop>
    </linearGradient>
  </defs>
</svg>
